<svg xmlns="http://www.w3.org/2000/svg" width="180" height="29.694" viewBox="0 0 180 29.694">
  <g id="Logo" transform="translate(-577.023 -842.418)">
    <g id="Group_1" data-name="Group 1" transform="translate(577.023 842.418)">
      <path id="Path_1" data-name="Path 1" d="M638.854,872.471H617.623a.926.926,0,1,0,0,1.853h21.231a.926.926,0,1,0,0-1.853Z" transform="translate(-610.572 -867.831)" fill="#3d8bf2"/>
      <path id="Path_2" data-name="Path 2" d="M605.306,870.259H582.59a3.714,3.714,0,1,1,0-7.428H601.2a5.567,5.567,0,1,0,0-11.133H582.59a3.714,3.714,0,1,1,0-7.427h22.716a.926.926,0,0,0,0-1.853H582.59a5.566,5.566,0,1,0,0,11.133H601.2a3.714,3.714,0,1,1,0,7.428H582.59a5.567,5.567,0,0,0,0,11.133h22.716a.926.926,0,0,0,0-1.853Z" transform="translate(-577.023 -842.418)" fill="#3d8bf2"/>
      <path id="Path_3" data-name="Path 3" d="M638.854,992.687H617.623a.926.926,0,1,0,0,1.853h21.231a.926.926,0,1,0,0-1.853Z" transform="translate(-610.572 -969.486)" fill="#3d8bf2"/>
      <path id="Path_4" data-name="Path 4" d="M613.172,934.432a.926.926,0,0,0,0-1.853H593.866a.926.926,0,0,0,0,1.853Z" transform="translate(-590.482 -918.659)" fill="#3d8bf2"/>
    </g>
    <g id="Group_2" data-name="Group 2" transform="translate(614.362 848.04)">
      <path id="Path_5" data-name="Path 5" d="M833.938,889.834a.331.331,0,0,1,.313.376c-.47,3.04-3.1,5.516-7.366,5.516-5.2,0-8.024-3.479-8.024-8.4,0-5.109,2.978-8.494,7.9-8.494,4.952,0,7.8,3.322,7.93,8.776a.4.4,0,0,1-.376.376H822.655c.156,3.448,1.567,5.077,4.263,5.077a3.439,3.439,0,0,0,3.7-2.852.5.5,0,0,1,.47-.376Zm-7.146-8.368c-2.257,0-3.6,1.379-4.012,3.981h7.836C830.459,883.346,829.237,881.466,826.792,881.466Z" transform="translate(-818.862 -878.833)" fill="#001833"/>
      <path id="Path_6" data-name="Path 6" d="M928.329,897.411a.66.66,0,0,1-.564-.345l-3.26-5.892-3.416,5.924a.7.7,0,0,1-.564.313h-3.2c-.157,0-.282-.188-.188-.313l4.984-8.086-4.639-7.428a.224.224,0,0,1,.188-.313h3.479a.7.7,0,0,1,.564.313l3.134,5.454,2.946-5.422a.66.66,0,0,1,.564-.345h3.072c.157,0,.282.188.188.313l-4.451,7.4,4.858,8.118c.094.125-.031.313-.188.313Z" transform="translate(-901.938 -880.894)" fill="#001833"/>
      <path id="Path_7" data-name="Path 7" d="M1022.622,895.694a.4.4,0,0,1-.376-.376l.063-1.818a5.868,5.868,0,0,1-4.983,2.508c-4.451,0-6.833-3.636-6.833-8.337,0-4.67,2.6-8.431,6.927-8.431a5.622,5.622,0,0,1,4.858,2.382l-.063-1.693a.4.4,0,0,1,.376-.376h3.1a.4.4,0,0,1,.376.376l-.157,7.648.157,7.742a.4.4,0,0,1-.376.376Zm-4.263-2.35c2.539,0,3.981-1.881,4.012-5.61s-1.379-5.8-3.949-5.83c-2.727-.031-4.074,2.069-4.074,5.516C1014.347,891.181,1015.695,893.343,1018.359,893.343Z" transform="translate(-980.905 -879.176)" fill="#001833"/>
      <path id="Path_8" data-name="Path 8" d="M1133.071,889.333l.157,5.642a.4.4,0,0,1-.376.376h-3.228a.4.4,0,0,1-.376-.376l.157-5.642-.094-9.748a.4.4,0,0,1,.376-.376h2.946a.4.4,0,0,1,.376.376l-.063,1.975a5.468,5.468,0,0,1,4.8-2.727,4.394,4.394,0,0,1,4.607,3.2,5.383,5.383,0,0,1,5.015-3.2c3.228,0,5.109,1.974,5.109,6.331v4.169l.094,5.642a.4.4,0,0,1-.376.376h-3.166a.4.4,0,0,1-.376-.376l.157-5.642v-4.075c0-2.445-1.066-3.479-2.633-3.479-1.473,0-2.978,1.567-3.385,4.451v3.1l.157,5.642a.4.4,0,0,1-.376.376H1139.4a.4.4,0,0,1-.376-.376l.125-5.642v-4.075c0-2.445-1-3.479-2.6-3.479s-3.166,1.755-3.479,4.952Z" transform="translate(-1081.325 -878.833)" fill="#001833"/>
    </g>
    <g id="Group_3" data-name="Group 3" transform="translate(688.227 842.618)">
      <path id="Path_9" data-name="Path 9" d="M1297.656,865.654a.4.4,0,0,1-.376-.376l.188-10.657-.188-10.531a.4.4,0,0,1,.376-.376h3.1a.4.4,0,0,1,.376.376l-.188,10.531.188,10.657a.4.4,0,0,1-.376.376Z" transform="translate(-1297.28 -843.714)" fill="#3d8bf2"/>
      <path id="Path_10" data-name="Path 10" d="M1352.954,889.835a.331.331,0,0,1,.313.376c-.47,3.04-3.1,5.516-7.365,5.516-5.2,0-8.024-3.479-8.024-8.4,0-5.109,2.978-8.494,7.9-8.494,4.952,0,7.8,3.322,7.93,8.776a.4.4,0,0,1-.376.376h-11.66c.157,3.448,1.567,5.078,4.263,5.078a3.439,3.439,0,0,0,3.7-2.852.5.5,0,0,1,.47-.376Zm-7.146-8.369c-2.257,0-3.6,1.379-4.012,3.98h7.836C1349.475,883.347,1348.252,881.467,1345.808,881.467Z" transform="translate(-1331.61 -873.412)" fill="#3d8bf2"/>
      <path id="Path_11" data-name="Path 11" d="M1463.281,895.694a.4.4,0,0,1-.376-.376l.063-1.818a5.868,5.868,0,0,1-4.984,2.508c-4.451,0-6.833-3.636-6.833-8.337,0-4.67,2.6-8.431,6.927-8.431a5.621,5.621,0,0,1,4.858,2.382l-.063-1.693a.4.4,0,0,1,.376-.376h3.1a.4.4,0,0,1,.376.376l-.157,7.647.157,7.742a.4.4,0,0,1-.376.376Zm-4.263-2.351c2.539,0,3.981-1.881,4.012-5.61s-1.379-5.8-3.949-5.83c-2.727-.031-4.074,2.069-4.074,5.516C1455.006,891.181,1456.354,893.343,1459.018,893.343Z" transform="translate(-1427.394 -873.754)" fill="#3d8bf2"/>
      <path id="Path_12" data-name="Path 12" d="M1570.281,896.725a.4.4,0,0,1-.376-.376l.157-7.773-.157-7.616a.4.4,0,0,1,.376-.376h3.072a.355.355,0,0,1,.345.376l-.094,2.507a6.354,6.354,0,0,1,5.642-3.009,5.15,5.15,0,0,1,.721.063.439.439,0,0,1,.376.439v2.194a.356.356,0,0,1-.376.345,4.654,4.654,0,0,0-.689-.031,5.22,5.22,0,0,0-5.579,5.328l.063,7.554a.4.4,0,0,1-.376.376Z" transform="translate(-1527.813 -874.785)" fill="#3d8bf2"/>
      <path id="Path_13" data-name="Path 13" d="M1649.246,895.352a.4.4,0,0,1-.376-.376l.157-7.209-.125-8.18a.4.4,0,0,1,.376-.376h2.915a.4.4,0,0,1,.376.376l-.062,1.975a6.3,6.3,0,0,1,5.265-2.727c3.385,0,5.485,2.257,5.485,6.331v3.322l.125,6.488a.4.4,0,0,1-.376.376h-3.1a.4.4,0,0,1-.376-.376l.125-6.488v-3.228c0-2.288-1.254-3.479-2.977-3.479-1.912,0-3.667,1.6-3.981,4.952v1.755l.063,6.488a.4.4,0,0,1-.376.376Z" transform="translate(-1594.586 -873.412)" fill="#3d8bf2"/>
    </g>
  </g>
</svg>
