<svg xmlns="http://www.w3.org/2000/svg" xmlns:xlink="http://www.w3.org/1999/xlink" width="690" height="268.061" viewBox="0 0 690 268.061">
  <defs>
    <clipPath id="clip-path">
      <rect id="Rectangle_145" data-name="Rectangle 145" width="690" height="218" rx="5" transform="translate(375 252)" fill="#fff"/>
    </clipPath>
    <linearGradient id="linear-gradient" x1="1.211" y1="0.5" x2="0.005" y2="0.5" gradientUnits="objectBoundingBox">
      <stop offset="0" stop-color="#2a5996"/>
      <stop offset="1" stop-color="#438ced"/>
    </linearGradient>
  </defs>
  <g id="Group_9386" data-name="Group 9386" transform="translate(-375 -172)">
    <g id="Mask_Group_1" data-name="Mask Group 1" transform="translate(0 -80)" clip-path="url(#clip-path)">
      <ellipse id="Ellipse_33" data-name="Ellipse 33" cx="431" cy="141" rx="431" ry="141" transform="translate(289 140)" fill="url(#linear-gradient)"/>
    </g>
    <g id="medal" transform="translate(594.484 243.939)">
      <path id="Path_144" data-name="Path 144" d="M342.277,361.323l-21.824-4.8a2,2,0,0,0-2.34,1.351l-6.765,21.357a2,2,0,0,1-3.645.395L282.68,336.151l-4.186-7.268a72.524,72.524,0,0,0,37.02-20.775l4.154,7.212,24.776,43.049a2,2,0,0,1-2.167,2.955Z" transform="translate(-139.486 -184.691)" fill="#327fe5" opacity="0.999"/>
      <path id="Path_145" data-name="Path 145" d="M401.57,422.789l-21.823-4.8a2,2,0,0,0-2.339,1.35l2.349-7.3A2,2,0,0,1,382.1,410.7l18.779,4.174,2.86,4.967A2,2,0,0,1,401.57,422.789Z" transform="translate(-198.779 -246.159)" fill="#3d8bf2"/>
      <path id="Path_146" data-name="Path 146" d="M112.483,332.02,82.812,383.554a2,2,0,0,1-3.645-.395L72.4,361.8a2,2,0,0,0-2.34-1.351l-21.824,4.8a2,2,0,0,1-2.166-2.955l27.6-47.943c10.3,9.767,24.2,15.257,38.816,17.664Z" transform="translate(0 -188.437)" fill="#327fe5" opacity="0.999"/>
      <g id="Group_220" data-name="Group 220" transform="translate(45.8 121.986)">
        <path id="Path_147" data-name="Path 147" d="M77.575,315.6l-24.59,42.72-4.743,1.045a2,2,0,0,1-2.167-2.955l23.49-40.81,6.352-11.064q2.566,2.429,5.359,4.6Z" transform="translate(-45.801 -304.538)" fill="#3d8bf2"/>
        <path id="Path_148" data-name="Path 148" d="M122.014,444.969l-2.9,5.031a2,2,0,0,1-3.645-.393l-6.765-21.358a2,2,0,0,0-2.339-1.354l7.482-1.646a2,2,0,0,1,2.339,1.351Z" transform="translate(-82.107 -376.869)" fill="#3d8bf2"/>
        <path id="Path_149" data-name="Path 149" d="M109.9,311.311l19.515,8.8,18.633,10.083-5,8.672A80.219,80.219,0,0,1,105.508,320c-.128-.113-.256-.225-.385-.342Z" transform="translate(-81.361 -308.598)" fill="#3d8bf2"/>
        <path id="Path_150" data-name="Path 150" d="M319.667,315.32l-4.154-7.212-21.98,9.7-15.039,11.074,1.69,2.935,4.151,7.209,23.368,40.6a2,2,0,0,0,3.645-.395l1.488-4.7-23.227-40.457A80.183,80.183,0,0,0,319.667,315.32Z" transform="translate(-185.286 -306.678)" fill="#3d8bf2"/>
      </g>
      <path id="Path_151" data-name="Path 151" d="M208.713,72.917A72.631,72.631,0,0,1,87.7,127.393c-.545-.482-1.078-.972-1.606-1.474a74.324,74.324,0,0,1-5.335-5.617A72.841,72.841,0,0,1,157.125,3.126a72.042,72.042,0,0,1,20.24,9.815,71.325,71.325,0,0,1,5.888,4.556,72.884,72.884,0,0,1,25.46,55.42Z" transform="translate(-10.501 0)" fill="#efd13c"/>
      <ellipse id="Ellipse_32" data-name="Ellipse 32" cx="52.07" cy="52.227" rx="52.07" ry="52.227" transform="translate(73.445 20.69)" fill="#efd13c"/>
      <path id="Path_152" data-name="Path 152" d="M218.956,172.418a52.069,52.069,0,1,1-103.745-6.428,52.054,52.054,0,0,0,103.353,0A52.362,52.362,0,0,1,218.956,172.418Z" transform="translate(-41.373 -99.501)" fill="#e3c42a"/>
      <path id="Path_153" data-name="Path 153" d="M166.887,51.656a52.227,52.227,0,1,0,52.069,52.226A52.149,52.149,0,0,0,166.887,51.656Zm0,98.426a46.2,46.2,0,1,1,46.06-46.2A46.18,46.18,0,0,1,166.887,150.082Z" transform="translate(-41.373 -30.965)" fill="#faf063" fill-rule="evenodd"/>
      <path id="Path_154" data-name="Path 154" d="M204.314,108.257l7.153,14.611a2,2,0,0,0,1.514,1.1l16.075,2.31a2,2,0,0,1,1.112,3.417L218.509,141.05a2,2,0,0,0-.576,1.776l2.778,16.052a2,2,0,0,1-2.911,2.111l-14.347-7.6a2,2,0,0,0-1.875,0l-14.347,7.6a2,2,0,0,1-2.911-2.111l2.778-16.052a2,2,0,0,0-.576-1.776L174.862,129.7a2,2,0,0,1,1.112-3.417l16.075-2.31a2,2,0,0,0,1.514-1.1l7.153-14.611A2,2,0,0,1,204.314,108.257Z" transform="translate(-77.001 -64.221)" fill="#fff" opacity="0.771"/>
    </g>
    <g id="Group_233" data-name="Group 233">
      <g id="Group_231" data-name="Group 231" transform="translate(336.99 106.521)">
        <g id="Group_222" data-name="Group 222" transform="translate(609.776 118.988)">
          <line id="Line_23" data-name="Line 23" y2="11.516" fill="none" stroke="#efd13c" stroke-linecap="round" stroke-miterlimit="10" stroke-width="3"/>
        </g>
        <g id="Group_223" data-name="Group 223" transform="translate(593.114 115.638)">
          <line id="Line_24" data-name="Line 24" x1="8.143" y2="8.143" fill="none" stroke="#efd13c" stroke-linecap="round" stroke-miterlimit="10" stroke-width="3"/>
        </g>
        <g id="Group_224" data-name="Group 224" transform="translate(586.085 107.246)">
          <line id="Line_25" data-name="Line 25" x1="11.516" fill="none" stroke="#efd13c" stroke-linecap="round" stroke-miterlimit="10" stroke-width="3"/>
        </g>
        <g id="Group_225" data-name="Group 225" transform="translate(592.808 90.583)">
          <line id="Line_26" data-name="Line 26" x1="8.143" y1="8.143" transform="translate(0 0)" fill="none" stroke="#efd13c" stroke-linecap="round" stroke-miterlimit="10" stroke-width="3"/>
        </g>
        <g id="Group_226" data-name="Group 226" transform="translate(609.344 83.555)">
          <line id="Line_27" data-name="Line 27" y1="11.516" fill="none" stroke="#efd13c" stroke-linecap="round" stroke-miterlimit="10" stroke-width="3"/>
        </g>
        <g id="Group_227" data-name="Group 227" transform="translate(617.863 90.278)">
          <line id="Line_28" data-name="Line 28" y1="8.143" x2="8.143" transform="translate(0 0)" fill="none" stroke="#efd13c" stroke-linecap="round" stroke-miterlimit="10" stroke-width="3"/>
        </g>
        <g id="Group_228" data-name="Group 228" transform="translate(621.518 106.814)">
          <line id="Line_29" data-name="Line 29" x2="11.516" fill="none" stroke="#efd13c" stroke-linecap="round" stroke-miterlimit="10" stroke-width="3"/>
        </g>
        <g id="Group_229" data-name="Group 229" transform="translate(618.169 115.333)">
          <line id="Line_30" data-name="Line 30" x2="8.143" y2="8.143" transform="translate(0)" fill="none" stroke="#efd13c" stroke-linecap="round" stroke-miterlimit="10" stroke-width="3"/>
        </g>
        <g id="Group_230" data-name="Group 230" transform="translate(609.776 118.988)">
          <line id="Line_31" data-name="Line 31" y2="11.516" fill="none" stroke="#efd13c" stroke-linecap="round" stroke-miterlimit="10" stroke-width="3"/>
        </g>
      </g>
      <g id="Group_232" data-name="Group 232" transform="translate(-149.086 132.445)">
        <g id="Group_222-2" data-name="Group 222" transform="translate(628.018 146.272)">
          <line id="Line_23-2" data-name="Line 23" y2="20.384" fill="none" stroke="#fff" stroke-linecap="round" stroke-miterlimit="10" stroke-width="3"/>
        </g>
        <g id="Group_223-2" data-name="Group 223" transform="translate(598.526 140.343)">
          <line id="Line_24-2" data-name="Line 24" x1="14.413" y2="14.413" fill="none" stroke="#fff" stroke-linecap="round" stroke-miterlimit="10" stroke-width="3"/>
        </g>
        <g id="Group_224-2" data-name="Group 224" transform="translate(586.085 125.488)">
          <line id="Line_25-2" data-name="Line 25" x1="20.384" fill="none" stroke="#fff" stroke-linecap="round" stroke-miterlimit="10" stroke-width="3"/>
        </g>
        <g id="Group_225-2" data-name="Group 225" transform="translate(597.985 95.995)">
          <line id="Line_26-2" data-name="Line 26" x1="14.413" y1="14.413" transform="translate(0 0)" fill="none" stroke="#fff" stroke-linecap="round" stroke-miterlimit="10" stroke-width="3"/>
        </g>
        <g id="Group_226-2" data-name="Group 226" transform="translate(627.253 83.555)">
          <line id="Line_27-2" data-name="Line 27" y1="20.384" fill="none" stroke="#fff" stroke-linecap="round" stroke-miterlimit="10" stroke-width="3"/>
        </g>
        <g id="Group_227-2" data-name="Group 227" transform="translate(642.332 95.454)">
          <line id="Line_28-2" data-name="Line 28" y1="14.413" x2="14.413" transform="translate(0 0)" fill="none" stroke="#fff" stroke-linecap="round" stroke-miterlimit="10" stroke-width="3"/>
        </g>
        <g id="Group_228-2" data-name="Group 228" transform="translate(648.802 124.723)">
          <line id="Line_29-2" data-name="Line 29" x2="20.384" fill="none" stroke="#fff" stroke-linecap="round" stroke-miterlimit="10" stroke-width="3"/>
        </g>
        <g id="Group_229-2" data-name="Group 229" transform="translate(642.873 139.802)">
          <line id="Line_30-2" data-name="Line 30" x2="14.413" y2="14.413" transform="translate(0)" fill="none" stroke="#fff" stroke-linecap="round" stroke-miterlimit="10" stroke-width="3"/>
        </g>
        <g id="Group_230-2" data-name="Group 230" transform="translate(628.018 146.272)">
          <line id="Line_31-2" data-name="Line 31" y2="20.384" fill="none" stroke="#fff" stroke-linecap="round" stroke-miterlimit="10" stroke-width="3"/>
        </g>
      </g>
      <g id="Ellipse_34" data-name="Ellipse 34" transform="translate(594 239)" fill="none" stroke="#efd13c" stroke-width="2">
        <circle cx="7" cy="7" r="7" stroke="none"/>
        <circle cx="7" cy="7" r="6" fill="none"/>
      </g>
      <g id="Ellipse_37" data-name="Ellipse 37" transform="translate(987 279)" fill="none" stroke="#fff" stroke-width="2">
        <circle cx="5.5" cy="5.5" r="5.5" stroke="none"/>
        <circle cx="5.5" cy="5.5" r="4.5" fill="none"/>
      </g>
      <g id="Ellipse_35" data-name="Ellipse 35" transform="translate(793 210)" fill="none" stroke="#3d8bf2" stroke-width="3">
        <circle cx="10.5" cy="10.5" r="10.5" stroke="none"/>
        <circle cx="10.5" cy="10.5" r="9" fill="none"/>
      </g>
    </g>
  </g>
</svg>
