<svg id="Accounting" xmlns="http://www.w3.org/2000/svg" width="32" height="32" viewBox="0 0 32 32">
  <circle id="Ellipse_10" data-name="Ellipse 10" cx="16" cy="16" r="16" fill="#8b5cf6" opacity="0.1"/>
  <path id="Path_71" data-name="Path 71" d="M6.355,5.711h8.125a.586.586,0,0,0,0-1.172H6.355a.586.586,0,1,0,0,1.172Z" transform="translate(3.98 4)" fill="#8b5cf6"/>
  <path id="Path_72" data-name="Path 72" d="M8.543,8.211H6.355a.586.586,0,1,1,0-1.172H8.543a.586.586,0,1,1,0,1.172Z" transform="translate(3.98 4)" fill="#8b5cf6"/>
  <path id="Path_73" data-name="Path 73" d="M15.106,12.586a.586.586,0,1,1,0-1.172h3.75a.586.586,0,1,1,0,1.172Z" transform="translate(3.98 4)" fill="#8b5cf6"/>
  <path id="Path_74" data-name="Path 74" d="M15.681,14.385a.586.586,0,1,0-.4.675A.586.586,0,0,0,15.681,14.385Z" transform="translate(3.98 4)" fill="#8b5cf6"/>
  <path id="Path_75" data-name="Path 75" d="M16.567,14.085a.586.586,0,1,1,.414,1A.587.587,0,0,1,16.567,14.085Z" transform="translate(3.98 4)" fill="#8b5cf6"/>
  <path id="Path_76" data-name="Path 76" d="M19.431,14.385a.586.586,0,1,0-.4.675A.586.586,0,0,0,19.431,14.385Z" transform="translate(3.98 4)" fill="#8b5cf6"/>
  <path id="Path_77" data-name="Path 77" d="M14.531,16.8a.586.586,0,1,1,.689.46A.586.586,0,0,1,14.531,16.8Z" transform="translate(3.98 4)" fill="#8b5cf6"/>
  <path id="Path_78" data-name="Path 78" d="M17.556,16.573a.586.586,0,1,0-.4.675A.586.586,0,0,0,17.556,16.573Z" transform="translate(3.98 4)" fill="#8b5cf6"/>
  <path id="Path_79" data-name="Path 79" d="M18.27,16.688a.586.586,0,0,1,1.172,0v2.188a.586.586,0,0,1-1.172,0Z" transform="translate(3.98 4)" fill="#8b5cf6"/>
  <path id="Path_80" data-name="Path 80" d="M15.432,18.388a.586.586,0,1,0-.211,1.062A.586.586,0,0,0,15.432,18.388Z" transform="translate(3.98 4)" fill="#8b5cf6"/>
  <path id="Path_81" data-name="Path 81" d="M16.494,18.55a.586.586,0,1,1,.545.909A.586.586,0,0,1,16.494,18.55Z" transform="translate(3.98 4)" fill="#8b5cf6"/>
  <path id="Path_82" data-name="Path 82" d="M17.567,8.914H21.4a.586.586,0,0,1,.586.586V21.414A.586.586,0,0,1,21.4,22H3.856A1.872,1.872,0,0,1,2.02,20.125v-10c0-.008,0-.014,0-.02v-.013a10.5,10.5,0,0,1,.535-1.544c.175-.48.407-1.116.715-1.963v-4A.586.586,0,0,1,3.856,2H16.981a.586.586,0,0,1,.586.586Zm-1.172,0V3.172H4.442V6.584l1.215,3.34.008.018,0,0c.03.068.03.15.028,3.862v0c0,1.465,0,3.5,0,6.313a2.04,2.04,0,0,1-.125.7H12.02V9.5a.586.586,0,0,1,.586-.586ZM4.52,11.961H3.192v6.328H4.52Zm0-1.733L3.856,8.4l-.664,1.826v.561H4.52Zm0,9.233H3.192v.664a.7.7,0,0,0,.664.7.7.7,0,0,0,.664-.7Zm8.672,1.367h7.617V10.086H13.192Z" transform="translate(3.98 4)" fill="#8b5cf6"/>
</svg>
