<svg id="icons_Q2" data-name="icons Q2" xmlns="http://www.w3.org/2000/svg" width="21.287" height="21.287" viewBox="0 0 21.287 21.287">
  <g id="Group_1581" data-name="Group 1581">
    <path id="Path_3702" data-name="Path 3702" d="M20.234,10a4.234,4.234,0,1,0,4.234,4.234A4.234,4.234,0,0,0,20.234,10Zm0,6.351a2.117,2.117,0,1,1,2.117-2.117A2.117,2.117,0,0,1,20.234,16.351Z" transform="translate(-9.59 -6.337)" fill="#3d8bf2"/>
    <path id="Path_3703" data-name="Path 3703" d="M12.644,2a10.6,10.6,0,1,0,7.54,3.1A10.644,10.644,0,0,0,12.644,2Zm-5.9,17.03a12.772,12.772,0,0,1,5.9-1.548,12.772,12.772,0,0,1,5.9,1.548A8.66,8.66,0,0,1,6.741,19.03Zm13.111-1.5h0a14.853,14.853,0,0,0-7.209-1.984A14.853,14.853,0,0,0,5.435,17.53h0a8.563,8.563,0,0,1-1.5-4.886,8.708,8.708,0,1,1,17.417,0,8.563,8.563,0,0,1-1.5,4.886Z" transform="translate(-2 -2)" fill="#3d8bf2"/>
  </g>
</svg>
