<svg id="Agricultural_Science" data-name="Agricultural Science" xmlns="http://www.w3.org/2000/svg" width="32" height="32" viewBox="0 0 32 32">
  <circle id="Ellipse_12" data-name="Ellipse 12" cx="16" cy="16" r="16" fill="#d946ef" opacity="0.1"/>
  <g id="Group_101" data-name="Group 101" transform="translate(1)">
    <path id="Path_85" data-name="Path 85" d="M15.554,3.21a.586.586,0,0,1,.586.586,6.436,6.436,0,0,1-2.56,5.143,4.867,4.867,0,0,1,.886,1.486A8.647,8.647,0,0,1,14.811,15a8.68,8.68,0,0,1-1.89,4.187A3.847,3.847,0,0,1,10.1,20.678a2.752,2.752,0,0,1-1.615-.522,2.778,2.778,0,0,1-1.131.479,3.618,3.618,0,0,1-3.308-1.449A8.68,8.68,0,0,1,2.153,15,8.646,8.646,0,0,1,2.5,10.425,3.618,3.618,0,0,1,5.113,7.939a3.128,3.128,0,0,1,2.365.61,1.828,1.828,0,0,0,.418.222V8.484a2.933,2.933,0,0,0-2.93-2.93.586.586,0,0,1,0-1.172A4.107,4.107,0,0,1,8.64,6.66a6.509,6.509,0,0,1,5.742-3.45Zm-.619,1.172h-.553A5.351,5.351,0,0,0,9.15,8.738a1.85,1.85,0,0,0,.336-.189,3.128,3.128,0,0,1,2.365-.61,2.8,2.8,0,0,1,.76.25A5.305,5.305,0,0,0,14.935,4.381ZM12.041,18.413A7.5,7.5,0,0,0,13.657,14.8a7.467,7.467,0,0,0-.283-3.944,2.514,2.514,0,0,0-1.726-1.759,1.963,1.963,0,0,0-1.486.413,2.877,2.877,0,0,1-3.36,0,2.026,2.026,0,0,0-1.486-.413A2.514,2.514,0,0,0,3.59,10.852,7.467,7.467,0,0,0,3.308,14.8a7.5,7.5,0,0,0,1.616,3.617,2.516,2.516,0,0,0,2.224,1.068,1.768,1.768,0,0,0,.925-.507.586.586,0,0,1,.819,0,1.688,1.688,0,0,0,1.2.53A2.733,2.733,0,0,0,12.041,18.413Z" transform="translate(3 4)" fill="#d946ef"/>
    <path id="Path_86" data-name="Path 86" d="M20.829,8.484V9.07H17.313V8.484a.586.586,0,0,0-1.172,0v2.067a4.826,4.826,0,0,0,1.842,3.793,4.827,4.827,0,0,0-1.842,3.793V20.2a.586.586,0,0,0,1.172,0v-.586h3.516V20.2A.586.586,0,1,0,22,20.2V18.137a4.828,4.828,0,0,0-1.842-3.793A4.828,4.828,0,0,0,22,10.551V8.484a.586.586,0,1,0-1.172,0Zm0,2.067v-.309H17.313v.309a3.7,3.7,0,0,0,.1.863h3.312A3.692,3.692,0,0,0,20.829,10.551Zm-2.9,5.551h2.286a3.64,3.64,0,0,0-1.143-1.089A3.64,3.64,0,0,0,17.928,16.1Zm2.286-3.516H17.928a3.642,3.642,0,0,0,1.143,1.09A3.643,3.643,0,0,0,20.214,12.586Zm-2.9,5.551v.309h3.516v-.309a3.692,3.692,0,0,0-.1-.863H17.415A3.7,3.7,0,0,0,17.313,18.137Z" transform="translate(3 4)" fill="#d946ef" fill-rule="evenodd"/>
  </g>
</svg>
