<svg id="Agricultural_Economics" data-name="Agricultural Economics" xmlns="http://www.w3.org/2000/svg" width="32" height="32" viewBox="0 0 32 32">
  <circle id="Ellipse_11" data-name="Ellipse 11" cx="16" cy="16" r="16" fill="#f43f5e" opacity="0.1"/>
  <path id="Path_83" data-name="Path 83" d="M11.092,11.363a2.2,2.2,0,1,1,2.2,2.2A2.2,2.2,0,0,1,11.092,11.363Zm1.172,0a1.027,1.027,0,1,0,1.027-1.027A1.029,1.029,0,0,0,12.264,11.363Z" transform="translate(5 2.998)" fill="#f43f5e" fill-rule="evenodd"/>
  <path id="Path_84" data-name="Path 84" d="M19.762,9.4l2.176,4.347a.586.586,0,0,1-.96.653v7.016a.586.586,0,0,1-.586.586H2.977a.586.586,0,0,1-.586-.586V18.488a.585.585,0,0,1,0-1.1v-2.8a.585.585,0,0,1,0-1.1v-2.8a.585.585,0,0,1,0-1.1v-2.8a.585.585,0,0,1,.038-1.116,4.216,4.216,0,0,1,8.355,0,.585.585,0,0,1,.038,1.116v.5l2.2-1.1a.586.586,0,0,1,.523,0L19.409,9.1A.586.586,0,0,1,19.762,9.4ZM6.828,9.4a.592.592,0,0,1,.262-.262L9.65,7.855V6.8H3.562V9.537H6.757ZM5.594,17.35V14.616H3.562V17.35ZM3.562,13.444H4.8L6.17,10.709H3.562Zm6.03-7.812a3.043,3.043,0,0,0-5.973,0Zm-4,12.891H3.562v2.3H5.594Zm8.592-.178L16.194,20.1V16.589Zm-.891.778-1.952,1.705h3.9Zm-1.924-3.236,1.924,1.68,1.924-1.68ZM10.4,20.1,12.4,18.343,10.4,16.589Zm6.97-4.8v5.527h2.44V12.1l-1-1.994L13.286,7.35l-5.5,2.745L6.766,12.138v8.689H9.224V15.3a.592.592,0,0,1,.586-.586h6.97A.592.592,0,0,1,17.366,15.3Z" transform="translate(5 2.998)" fill="#f43f5e" fill-rule="evenodd"/>
</svg>
