<svg id="Ancient_Greek" data-name="Ancient Greek" xmlns="http://www.w3.org/2000/svg" width="32" height="32" viewBox="0 0 32 32">
  <circle id="Ellipse_13" data-name="Ellipse 13" cx="16" cy="16" r="16" fill="#f59e2d" opacity="0.1"/>
  <g id="Group_102" data-name="Group 102" transform="translate(-14 1.625)">
    <path id="Path_87" data-name="Path 87" d="M11.961,2.625C6.4,2.625,2,6.607,2,11.414a8.188,8.188,0,0,0,2.285,5.6,3.563,3.563,0,0,1-.941,3.357.587.587,0,0,0,.414,1,6.464,6.464,0,0,0,4.476-1.808,11.055,11.055,0,0,0,3.728.636C17.539,20.2,22,16.209,22,11.414S17.536,2.625,11.961,2.625Zm0,16.414a9.86,9.86,0,0,1-3.663-.7.586.586,0,0,0-.649.149,5.289,5.289,0,0,1-2.63,1.561,4.738,4.738,0,0,0,.357-3.487.585.585,0,0,0-.143-.248,7.05,7.05,0,0,1-2.069-4.9c0-4.2,3.951-7.625,8.8-7.625,4.889,0,8.875,3.425,8.875,7.625S16.85,19.039,11.961,19.039Z" transform="translate(18 2.375)" fill="#f59e0b"/>
    <path id="Path_88" data-name="Path 88" d="M7.853,14.5l.384-1.222h2.009l.384,1.222H12.14L10.177,8.682H8.3L6.342,14.5Zm.719-2.29.645-2.062h.045L9.91,12.21Z" transform="translate(18 2.375)" fill="#f59e0b"/>
    <path id="Path_89" data-name="Path 89" d="M16.471,10.582h1.423A2.377,2.377,0,0,0,15.372,8.6a2.74,2.74,0,0,0-2.781,3,2.712,2.712,0,0,0,2.8,2.98,2.378,2.378,0,0,0,2.568-2.491v-.77H15.449v1.026H16.6c-.014.614-.44,1-1.2,1-.872,0-1.375-.645-1.375-1.764s.531-1.747,1.375-1.747A1.01,1.01,0,0,1,16.471,10.582Z" transform="translate(18 2.375)" fill="#f59e0b"/>
  </g>
</svg>
