<svg id="Applied_Maths" data-name="Applied Maths" xmlns="http://www.w3.org/2000/svg" width="32" height="32" viewBox="0 0 32 32">
  <circle id="Ellipse_15" data-name="Ellipse 15" cx="16" cy="16" r="16" fill="#27b981" opacity="0.1"/>
  <g id="Group_103" data-name="Group 103" transform="translate(2 -1)">
    <path id="Path_91" data-name="Path 91" d="M5.011,8.71a1.484,1.484,0,0,0-1.29-2.218H2.586A.586.586,0,0,0,2,7.078v3.906a.586.586,0,0,0,.586.586h0l1.33,0A1.637,1.637,0,0,0,5.011,8.71ZM3.721,7.664a.313.313,0,0,1,0,.626H3.172V7.664Zm.2,2.73-.747,0V9.463h.747a.465.465,0,1,1,0,.931Z" transform="translate(2 6)" fill="#10b981"/>
    <path id="Path_92" data-name="Path 92" d="M14.746,17.356l-.006-.016a.672.672,0,0,0-.624-.418h0a.673.673,0,0,0-.624.419l-.005.013L12.02,21.205a.586.586,0,1,0,1.1.417l.222-.582h1.548l.219.58a.586.586,0,0,0,1.1-.414Zm-.963,2.513L14.114,19l.328.869Z" transform="translate(2 6)" fill="#10b981"/>
    <path id="Path_93" data-name="Path 93" d="M17.6,8.055a2.122,2.122,0,0,0,1.68-.761.586.586,0,1,0-.9-.753.953.953,0,0,1-.781.342,1.367,1.367,0,1,1,.764-2.5.586.586,0,0,0,.656-.971A2.539,2.539,0,1,0,17.6,8.055Z" transform="translate(2 6)" fill="#10b981"/>
    <path id="Path_94" data-name="Path 94" d="M21.8,14.648,7.741,2.148a.586.586,0,0,0-.975.438v12.5a.586.586,0,0,0,.586.586H21.414a.586.586,0,0,0,.389-1.024Zm-4.7-2.606a5.262,5.262,0,0,0-.935,2.458h-5.5V12.352a.586.586,0,0,0-.586-.586H7.937V3.891Zm-9.17.9H9.5V14.5H7.937ZM17.355,14.5a4.091,4.091,0,0,1,.636-1.673L19.873,14.5Z" transform="translate(2 6)" fill="#10b981"/>
  </g>
</svg>
