<svg id="Art" xmlns="http://www.w3.org/2000/svg" width="32" height="32" viewBox="0 0 32 32">
  <circle id="Ellipse_18" data-name="Ellipse 18" cx="16" cy="16" r="16" fill="#d946ef" opacity="0.1"/>
  <path id="Path_100" data-name="Path 100" d="M6.69,8.519a1.757,1.757,0,1,1,1.758,1.758A1.76,1.76,0,0,1,6.69,8.519Zm1.172,0a.586.586,0,1,0,.586-.586A.586.586,0,0,0,7.862,8.519Z" transform="translate(3.999 4)" fill="#d946ef" fill-rule="evenodd"/>
  <path id="Path_101" data-name="Path 101" d="M4.346,12.034A1.758,1.758,0,1,1,6.1,13.791,1.759,1.759,0,0,1,4.346,12.034Zm1.172,0a.586.586,0,1,0,.586-.586A.587.587,0,0,0,5.517,12.034Z" transform="translate(3.999 4)" fill="#d946ef" fill-rule="evenodd"/>
  <path id="Path_102" data-name="Path 102" d="M7.275,14.963A1.757,1.757,0,1,0,9.033,16.72,1.759,1.759,0,0,0,7.275,14.963Zm0,2.343a.586.586,0,1,1,.586-.586A.586.586,0,0,1,7.275,17.306Z" transform="translate(3.999 4)" fill="#d946ef" fill-rule="evenodd"/>
  <path id="Path_103" data-name="Path 103" d="M21.748,2.253c.6.6,0,1.667-.584,2.529A23.778,23.778,0,0,1,18.1,8.295a8.814,8.814,0,0,1,1.386,6.218,2.5,2.5,0,0,1-1.7,2,2.578,2.578,0,0,1-2.642-.623,1.171,1.171,0,0,0-1.657,1.656A2.582,2.582,0,0,1,14.1,20.2a2.5,2.5,0,0,1-2,1.706,8.755,8.755,0,0,1-1.308.1,9.131,9.131,0,0,1-1.935-.21A8.8,8.8,0,1,1,15.608,5.84a20.535,20.535,0,0,1,3.583-3.053,6.372,6.372,0,0,1,1.289-.67A1.155,1.155,0,0,1,21.748,2.253ZM19.4,5.172a10.945,10.945,0,0,0,1.284-1.878,10.247,10.247,0,0,0-1.923,1.239ZM17.411,15.4a1.313,1.313,0,0,0,.912-1.064,7.655,7.655,0,0,0-1.108-5.25,10.869,10.869,0,0,1-2.558,1.732,2.346,2.346,0,0,1-.565,2.4,3.866,3.866,0,0,1-5.468,0l-.166-.166a.586.586,0,0,1,.321-.993,1.731,1.731,0,0,0,1.409-1.166A2.343,2.343,0,0,1,13.078,9.31a10.588,10.588,0,0,1,1.735-2.586,7.48,7.48,0,0,0-2.545-.987A7.621,7.621,0,0,0,9.1,20.645a7.789,7.789,0,0,0,2.82.1,1.314,1.314,0,0,0,1.063-.913,1.42,1.42,0,0,0-.338-1.453,2.343,2.343,0,1,1,3.314-3.314A1.415,1.415,0,0,0,17.411,15.4ZM11.357,13.18a2.678,2.678,0,0,0,1.906-.789,1.172,1.172,0,0,0-1.657-1.657,1.157,1.157,0,0,0-.295.494,2.808,2.808,0,0,1-1.279,1.605A2.679,2.679,0,0,0,11.357,13.18Zm2.8-3.421a5.7,5.7,0,0,0,1.074-.614,20.945,20.945,0,0,0,3.4-3.083l-.776-.776a20.43,20.43,0,0,0-3.088,3.4A5.7,5.7,0,0,0,14.16,9.759Z" transform="translate(3.999 4)" fill="#d946ef" fill-rule="evenodd"/>
</svg>
