<svg id="Biology" xmlns="http://www.w3.org/2000/svg" width="32" height="32" viewBox="0 0 32 32">
  <circle id="Ellipse_19" data-name="Ellipse 19" cx="16" cy="16" r="16" fill="#27b981" opacity="0.1"/>
  <path id="Biology-2" data-name="Biology" d="M14.371,12.022c2.835-3.167,5.271-6.235,5.246-9.44A.586.586,0,0,0,19.031,2H16.687a.587.587,0,0,0-.586.595,3.163,3.163,0,0,1-.057.623H7.957A3.143,3.143,0,0,1,7.9,2.631a.586.586,0,0,0-.586-.587H4.969a.586.586,0,0,0-.586.587c0,3.4,2.858,6.723,5.247,9.391-2.821,3.151-5.247,6.205-5.247,9.391A.587.587,0,0,0,4.969,22H7.313a.587.587,0,0,0,.586-.587,3.2,3.2,0,0,1,.058-.587h8.087a3.122,3.122,0,0,1,.059.587.586.586,0,0,0,.586.587h2.344a.587.587,0,0,0,.586-.587C19.617,18.013,16.76,14.691,14.371,12.022Zm1.288-7.63A11.379,11.379,0,0,1,14.63,6.153H9.374A11.57,11.57,0,0,1,8.347,4.392ZM12,9.394c-.6-.675-1.2-1.372-1.752-2.068h3.506C13.215,8.006,12.618,8.7,12,9.394ZM5.587,3.218H6.77c.316,2.21,2.325,4.68,4.442,7.055l-.792.873C8.023,8.463,5.871,5.787,5.587,3.218Zm0,17.608c.64-5.795,10.937-12.332,11.649-17.652h1.181c-.594,5.8-10.881,12.32-11.647,17.652ZM12,14.65c.6.677,1.2,1.373,1.75,2.068h-3.5C10.785,16.038,11.382,15.345,12,14.65Zm-3.658,5A11.382,11.382,0,0,1,9.37,17.891h5.253a11.657,11.657,0,0,1,1.029,1.761Zm8.889,1.174c-.316-2.195-2.315-4.668-4.442-7.055l.792-.873c2.392,2.678,4.548,5.357,4.832,7.928Z" transform="translate(4 4)" fill="#10b981"/>
</svg>
