<svg id="Bulgarian" xmlns="http://www.w3.org/2000/svg" width="32" height="32" viewBox="0 0 32 32">
  <circle id="Ellipse_20" data-name="Ellipse 20" cx="16" cy="16" r="16" fill="#8b5cf6" opacity="0.1"/>
  <path id="Path_104" data-name="Path 104" d="M17.1,10.582H15.678a1.01,1.01,0,0,0-1.071-.747c-.844,0-1.375.636-1.375,1.747s.5,1.764,1.375,1.764c.761,0,1.188-.389,1.2-1H14.656V11.318h2.509v.77A2.378,2.378,0,0,1,14.6,14.58a2.712,2.712,0,0,1-2.8-2.98,2.74,2.74,0,0,1,2.781-3A2.377,2.377,0,0,1,17.1,10.582Z" transform="translate(4 4)" fill="#8b5cf6"/>
  <path id="Path_105" data-name="Path 105" d="M9,14.5H6.388V8.682H8.814c1.307,0,1.983.594,1.983,1.472a1.269,1.269,0,0,1-1.088,1.261v.057a1.351,1.351,0,0,1,1.315,1.4C11.024,13.813,10.285,14.5,9,14.5Zm-1.2-2.52v1.386h.869c.608,0,.892-.244.892-.656,0-.446-.33-.73-.866-.73Zm0-2.182v1.276h.778c.46,0,.79-.239.79-.648,0-.386-.3-.628-.767-.628Z" transform="translate(4 4)" fill="#8b5cf6" fill-rule="evenodd"/>
  <path id="Path_106" data-name="Path 106" d="M2,11.414c0-4.807,4.4-8.789,9.961-8.789S22,6.616,22,11.414,17.539,20.2,11.961,20.2a11.055,11.055,0,0,1-3.728-.636,6.464,6.464,0,0,1-4.476,1.808.587.587,0,0,1-.414-1,3.563,3.563,0,0,0,.941-3.357A8.188,8.188,0,0,1,2,11.414ZM8.3,18.34a9.86,9.86,0,0,0,3.663.7c4.889,0,8.875-3.425,8.875-7.625S16.85,3.789,11.961,3.789c-4.846,0-8.8,3.425-8.8,7.625a7.05,7.05,0,0,0,2.069,4.9.585.585,0,0,1,.143.248,4.738,4.738,0,0,1-.357,3.487,5.289,5.289,0,0,0,2.63-1.561A.586.586,0,0,1,8.3,18.34Z" transform="translate(4 4)" fill="#8b5cf6" fill-rule="evenodd"/>
</svg>
