<svg id="Business" xmlns="http://www.w3.org/2000/svg" width="32" height="32" viewBox="0 0 32 32">
  <circle id="Ellipse_21" data-name="Ellipse 21" cx="16" cy="16" r="16" fill="#f43f5e" opacity="0.1"/>
  <path id="Path_107" data-name="Path 107" d="M21.336,2.581A.586.586,0,0,0,20.75,2H18.211a.586.586,0,1,0,0,1.172h1.124l-6.5,6.5a.586.586,0,0,0,.829.829l6.5-6.5V5.125a.586.586,0,0,0,1.172,0V3.562c0-.913,0-.981,0-.981S21.336,2.581,21.336,2.581Z" transform="translate(2.336 3)" fill="#f43f5e"/>
  <path id="Path_108" data-name="Path 108" d="M7.894,15.338A4.177,4.177,0,0,0,8.9,15.8a1.646,1.646,0,0,1-.064,3.113v.123a.586.586,0,1,1-1.172,0v-.056a2.121,2.121,0,0,1-.828-.352.586.586,0,0,1,.642-.981,1.039,1.039,0,0,0,.769.2.556.556,0,0,0,.556-.472.391.391,0,0,0-.294-.468,4.891,4.891,0,0,1-1.339-.646A1.468,1.468,0,0,1,7.665,13.8v-.085a.586.586,0,1,1,1.172,0v.048a1.908,1.908,0,0,1,.66.356.586.586,0,0,1-.792.863A.707.707,0,0,0,8.08,14.9a.326.326,0,0,0-.208.258A.229.229,0,0,0,7.894,15.338Z" transform="translate(2.336 3)" fill="#f43f5e"/>
  <path id="Path_109" data-name="Path 109" d="M20.75,10.164h-2.5a.586.586,0,0,0-.586.586v.664H15.75a.586.586,0,0,0-.586.586v.664H13.25a.586.586,0,0,0-.538.354,5.586,5.586,0,1,0-.048,6.776v1.62A.586.586,0,0,0,13.25,22h7.5a.586.586,0,0,0,.586-.586V10.75A.586.586,0,0,0,20.75,10.164ZM8.25,20.789a4.414,4.414,0,1,1,4.414-4.414A4.419,4.419,0,0,1,8.25,20.789Zm5.586-6.953h1.328v6.992H13.836Zm2.5-1.25h1.328v8.242H16.336Zm3.828,8.242H18.836V11.336h1.328Z" transform="translate(2.336 3)" fill="#f43f5e" fill-rule="evenodd"/>
</svg>
