<svg id="Chemistry" xmlns="http://www.w3.org/2000/svg" width="32" height="32" viewBox="0 0 32 32">
  <circle id="Ellipse_23" data-name="Ellipse 23" cx="16" cy="16" r="16" fill="#3b82f6" opacity="0.1"/>
  <path id="Path_114" data-name="Path 114" d="M6.688,16.727a.586.586,0,1,1-.586-.586A.586.586,0,0,1,6.688,16.727Z" transform="translate(4 4)" fill="#3b82f6"/>
  <path id="Path_115" data-name="Path 115" d="M18.484,16.727a.586.586,0,1,1-.586-.586A.586.586,0,0,1,18.484,16.727Z" transform="translate(4 4)" fill="#3b82f6"/>
  <path id="Path_116" data-name="Path 116" d="M12.547,17.9A1.758,1.758,0,1,1,14.3,19.656,1.76,1.76,0,0,1,12.547,17.9Zm1.172,0a.586.586,0,1,0,.586-.586A.587.587,0,0,0,13.719,17.9Z" transform="translate(4 4)" fill="#3b82f6"/>
  <path id="Path_117" data-name="Path 117" d="M20.242,7.938H11.375V5.415A1.758,1.758,0,0,0,10.789,2H6.1a1.758,1.758,0,0,0-.586,3.415v4.4a6.446,6.446,0,0,0,5.769,11.53A2.915,2.915,0,0,0,13.133,22H17.9a2.933,2.933,0,0,0,2.93-2.93V11.353a1.758,1.758,0,0,0-.586-3.415ZM6.336,10.72a.586.586,0,0,0,.351-.537V5.516h.586a.586.586,0,1,0,0-1.172H6.1a.586.586,0,1,1,0-1.172h4.688a.586.586,0,0,1,0,1.172H9.617a.586.586,0,1,0,0,1.172H10.2V8.038a1.758,1.758,0,0,0,0,3.314v2.5a1.9,1.9,0,0,1-1.92-.485,3.071,3.071,0,0,0-4.305,0,.478.478,0,0,1-.394.146A5.275,5.275,0,0,1,6.336,10.72ZM8.445,20.828a5.271,5.271,0,0,1-5.193-6.186,1.645,1.645,0,0,0,1.516-.411,1.9,1.9,0,0,1,2.726,0,3.109,3.109,0,0,0,2.709.827V19.07a2.91,2.91,0,0,0,.321,1.331A5.283,5.283,0,0,1,8.445,20.828ZM19.656,19.07A1.76,1.76,0,0,1,17.9,20.828H13.133a1.76,1.76,0,0,1-1.758-1.758V14.949a2.85,2.85,0,0,0,2.373-.536,2.946,2.946,0,0,0,3.576-.015,2.834,2.834,0,0,0,2.332.563Zm.586-8.789H19.07a.586.586,0,0,0,0,1.172h.586v2.3c-.852.271-1.729-.16-1.729-.545a.586.586,0,0,0-1.172,0c0,.253-.525.628-1.25.628-.66,0-1.172-.337-1.172-.628a.586.586,0,0,0-1.172,0c0,.4-.935.834-1.787.524V11.453h.586a.586.586,0,1,0,0-1.172H10.789a.586.586,0,1,1,0-1.172h9.453a.586.586,0,0,1,0,1.172Z" transform="translate(4 4)" fill="#3b82f6"/>
</svg>
