<svg id="Classical_Studies" data-name="Classical Studies" xmlns="http://www.w3.org/2000/svg" width="32" height="32" viewBox="0 0 32 32">
  <circle id="Ellipse_24" data-name="Ellipse 24" cx="16" cy="16" r="16" fill="#f43f5e" opacity="0.1"/>
  <path id="Path_118" data-name="Path 118" d="M20.789,10.242h.625A.586.586,0,0,0,22,9.656V7.313a.586.586,0,0,0-.323-.524L12.263,2.062a.586.586,0,0,0-.526,0L2.323,6.789A.586.586,0,0,0,2,7.313V9.656a.586.586,0,0,0,.586.586h.625v8.242H2.586A.586.586,0,0,0,2,19.07v2.344A.586.586,0,0,0,2.586,22H21.414A.586.586,0,0,0,22,21.414V19.07a.586.586,0,0,0-.586-.586h-.625ZM8.121,20.828H3.172V19.656H8.7Zm1.763-3.555-.6,1.211h-4.9V17.273ZM4.383,16.1V10.242H5.555V16.1Zm2.344,0V10.242h3.516V16.1Zm2.7,4.726,1.763-3.555h1.617l1.763,3.555ZM11.414,16.1V10.242h1.172V16.1Zm8.2,1.172v1.211h-4.9l-.6-1.211ZM18.445,16.1V10.242h1.172V16.1Zm-1.172,0H13.758V10.242h3.516Zm3.555,3.555v1.172H15.879L15.3,19.656ZM3.172,9.07v-1.4L12,3.242l8.828,4.432v1.4Z" transform="translate(4 3)" fill="#f43f5e"/>
  <path id="Path_119" data-name="Path 119" d="M12,4.383a1.758,1.758,0,1,0,1.758,1.758A1.76,1.76,0,0,0,12,4.383Zm0,2.344a.586.586,0,1,1,.586-.586A.587.587,0,0,1,12,6.727Z" transform="translate(4 3)" fill="#f43f5e"/>
</svg>
