<svg id="Construction_Studies" data-name="Construction Studies" xmlns="http://www.w3.org/2000/svg" width="32" height="32" viewBox="0 0 32 32">
  <circle id="Ellipse_25" data-name="Ellipse 25" cx="16" cy="16" r="16" fill="#27b981" opacity="0.1"/>
  <path id="Construction_Studies-2" data-name="Construction Studies" d="M21.414,5.164H18.836V4.5a.586.586,0,0,0-.586-.586h-2.5a.586.586,0,0,0-.586.586v.664H10.533L8.79,2.283A.586.586,0,0,0,8.289,2H5.2a.586.586,0,0,0-.586.586V5.164H2.586A.586.586,0,0,0,2,5.75v2.5a.586.586,0,0,0,.586.586h3.2v9.453H5.438a.586.586,0,0,0-.55.383L3.95,21.211A.586.586,0,0,0,4.5,22H12a.586.586,0,0,0,.55-.789l-.937-2.539a.586.586,0,0,0-.55-.383h-.352V8.836h4.453v.7a.586.586,0,0,0,.586.586h.664v1.417l-1.907,2.724h-.632a.586.586,0,0,0-.586.586v3.125a.586.586,0,0,0,.586.586h6.25a.586.586,0,0,0,.586-.586V14.852a.586.586,0,0,0-.586-.586h-.632l-1.907-2.724V10.125h.664a.586.586,0,0,0,.586-.586v-.7h2.578A.586.586,0,0,0,22,8.25V5.75A.586.586,0,0,0,21.414,5.164ZM19.539,17.391H14.461V15.438h5.078Zm-3.6-3.125L17,12.748l1.062,1.517ZM5.789,3.172h2.17L9.164,5.164H5.789Zm3.75,10.679-2.578,1.5V13.274l2.578-1.5Zm1.62,6.977H5.341l.5-1.367h4.809Zm-4.2-2.539V16.712l2.578-1.5v3.082Zm2.578-7.876-2.578,1.5V8.836H9.539ZM3.172,7.664V6.336H15.164V7.664ZM17.664,8.953H16.336V5.086h1.328Zm3.164-1.289H18.836V6.336h1.992Z" transform="translate(4 4)" fill="#10b981"/>
</svg>
