<svg id="Croatian" xmlns="http://www.w3.org/2000/svg" width="32" height="32" viewBox="0 0 32 32">
  <circle id="Ellipse_26" data-name="Ellipse 26" cx="16" cy="16" r="16" fill="#f43f5e" opacity="0.1"/>
  <path id="Path_120" data-name="Path 120" d="M11.961,2.625C6.4,2.625,2,6.607,2,11.414a8.188,8.188,0,0,0,2.285,5.6,3.563,3.563,0,0,1-.941,3.357.587.587,0,0,0,.414,1,6.464,6.464,0,0,0,4.476-1.808,11.055,11.055,0,0,0,3.728.636C17.539,20.2,22,16.209,22,11.414S17.536,2.625,11.961,2.625Zm0,16.414a9.86,9.86,0,0,1-3.663-.7.586.586,0,0,0-.649.149,5.289,5.289,0,0,1-2.63,1.561,4.738,4.738,0,0,0,.357-3.487.585.585,0,0,0-.143-.248,7.05,7.05,0,0,1-2.069-4.9c0-4.2,3.951-7.625,8.8-7.625,4.889,0,8.875,3.425,8.875,7.625S16.85,19.039,11.961,19.039Z" transform="translate(4 4)" fill="#f43f5e"/>
  <path id="Path_121" data-name="Path 121" d="M6.47,14.5H7.876V12.162h2.293V14.5h1.4V8.682h-1.4v2.335H7.876V8.682H6.47Z" transform="translate(4 4)" fill="#f43f5e"/>
  <path id="Path_122" data-name="Path 122" d="M12.614,14.5H14.02V12.509h.722L15.8,14.5h1.534l-1.207-2.216a1.7,1.7,0,0,0,1.009-1.665,1.889,1.889,0,0,0-2.122-1.937h-2.4Zm1.406-3.1V9.815h.693c.631,0,.969.264.969.8s-.338.781-.969.781Z" transform="translate(4 4)" fill="#f43f5e"/>
</svg>
