<svg id="CSPE" xmlns="http://www.w3.org/2000/svg" width="32" height="32" viewBox="0 0 32 32">
  <circle id="Ellipse_27" data-name="Ellipse 27" cx="16" cy="16" r="16" fill="#3b82f6" opacity="0.1"/>
  <path id="CSPE-2" data-name="CSPE" d="M12,7.605h3.906a3.073,3.073,0,1,0,0-1.172H12a5.014,5.014,0,1,0-1.872,4.527l2.91,2.91A5,5,0,0,0,12,16.395H8.089a3.073,3.073,0,1,0,0,1.172H12a5.024,5.024,0,1,0,1.876-4.524L10.96,10.132A5.01,5.01,0,0,0,12,7.605Zm6.922-2.487a1.9,1.9,0,1,1-1.9,1.9A1.9,1.9,0,0,1,18.927,5.118ZM3.172,7.019A3.848,3.848,0,1,1,9.937,9.531,3.033,3.033,0,0,0,8.554,7.713a1.945,1.945,0,1,0-3.069,0A3.033,3.033,0,0,0,4.1,9.531,3.844,3.844,0,0,1,3.172,7.019Zm3.074-.5a.773.773,0,1,1,.773.773A.774.774,0,0,1,6.246,6.52ZM5.17,10.4a1.851,1.851,0,1,1,3.7,0A3.866,3.866,0,0,1,5.17,10.4Zm-.1,8.486a1.9,1.9,0,1,1,1.9-1.9A1.9,1.9,0,0,1,5.073,18.882Zm10.058,1.475a1.854,1.854,0,0,1,1.849-1.931h0a1.853,1.853,0,0,1,1.849,1.931A3.866,3.866,0,0,1,15.131,20.357Zm1.076-3.876a.773.773,0,1,1,.773.773h0A.774.774,0,0,1,16.207,16.481Zm4.621.5a3.844,3.844,0,0,1-.93,2.511,3.034,3.034,0,0,0-1.383-1.817,1.945,1.945,0,1,0-3.069,0,3.033,3.033,0,0,0-1.383,1.817,3.848,3.848,0,1,1,6.765-2.511Z" transform="translate(4 4)" fill="#3b82f6"/>
</svg>
