<svg id="Czech" xmlns="http://www.w3.org/2000/svg" width="32" height="32" viewBox="0 0 32 32">
  <circle id="Ellipse_28" data-name="Ellipse 28" cx="16" cy="16" r="16" fill="#f59e2d" opacity="0.1"/>
  <path id="Path_123" data-name="Path 123" d="M11.961,2.625C6.4,2.625,2,6.607,2,11.414a8.188,8.188,0,0,0,2.285,5.6,3.563,3.563,0,0,1-.941,3.357.587.587,0,0,0,.414,1,6.464,6.464,0,0,0,4.476-1.808,11.055,11.055,0,0,0,3.728.636C17.539,20.2,22,16.209,22,11.414S17.536,2.625,11.961,2.625Zm0,16.414a9.86,9.86,0,0,1-3.663-.7.586.586,0,0,0-.649.149,5.289,5.289,0,0,1-2.63,1.561,4.738,4.738,0,0,0,.357-3.487.585.585,0,0,0-.143-.248,7.05,7.05,0,0,1-2.069-4.9c0-4.2,3.951-7.625,8.8-7.625,4.889,0,8.875,3.425,8.875,7.625S16.85,19.039,11.961,19.039Z" transform="translate(4 4)" fill="#f59e0b"/>
  <path id="Path_124" data-name="Path 124" d="M11.626,10.79A2.386,2.386,0,0,0,9.041,8.6a2.707,2.707,0,0,0-2.759,2.989A2.7,2.7,0,0,0,9.041,14.58a2.442,2.442,0,0,0,2.585-2.116l-1.421-.009a1.058,1.058,0,0,1-1.136.892c-.83,0-1.352-.6-1.352-1.756,0-1.111.511-1.756,1.361-1.756a1.048,1.048,0,0,1,1.128.955Z" transform="translate(4 4)" fill="#f59e0b"/>
  <path id="Path_125" data-name="Path 125" d="M12.571,14.5h4.6V13.358H14.349l2.827-3.875v-.8h-4.6V9.824H15.4L12.571,13.7Z" transform="translate(4 4)" fill="#f59e0b"/>
</svg>
