<svg id="icons_Q2" data-name="icons Q2" xmlns="http://www.w3.org/2000/svg" width="19.805" height="19.756" viewBox="0 0 19.805 19.756">
  <path id="Path_3690" data-name="Path 3690" d="M23.805,5.09V22.816a.149.149,0,0,1-.05.1.941.941,0,0,1-.891.891h-5.2V16.181h2.426c.149,0,.149,0,.2-.149l.149-1.238c.05-.5.1-.99.2-1.485s0-.149-.1-.149H17.666V11.23c0-.149.05-.347.05-.5a.891.891,0,0,1,.792-.792l.644-.1h1.485c.1,0,.1,0,.1-.1V7.219c0-.05,0-.1-.1-.1H18.359a3.565,3.565,0,0,0-1.634.347A2.971,2.971,0,0,0,14.992,9a3.614,3.614,0,0,0-.4,1.782c-.05.743,0,1.535,0,2.327H12.071c-.1,0-.1.05-.1.1v2.822c0,.1,0,.1.1.1H14.6v7.625a.149.149,0,0,0-.05.1H4.941a.941.941,0,0,1-.891-.891c-.05,0-.05-.05-.05-.1V5.09c0-.05,0-.1.05-.1A.941.941,0,0,1,4.941,4.1H22.865a.941.941,0,0,1,.891.891Z" transform="translate(-4 -4.1)" fill="#4c5c6f"/>
</svg>
