<svg id="google" xmlns="http://www.w3.org/2000/svg" width="14.018" height="14.018" viewBox="0 0 14.018 14.018">
  <path id="Path_3640" data-name="Path 3640" d="M46.922,299.555A6.931,6.931,0,0,1,36.4,297.772l.455-2.1,2.017-.375a3.722,3.722,0,0,0,3.54,2.62,3.643,3.643,0,0,0,2.168-.706l1.938.3Z" transform="translate(-35.403 -287.215)" fill="#59c36a"/>
  <path id="Path_3641" data-name="Path 3641" d="M260.509,367.541l-.4-2.045-1.938-.3a3.643,3.643,0,0,1-2.168.706v3.313A7,7,0,0,0,260.509,367.541Z" transform="translate(-248.991 -355.201)" fill="#00a66c"/>
  <g id="Connected_Home_1_" transform="translate(0 3.461)">
    <g id="Group_1409" data-name="Group 1409" transform="translate(0)">
      <g id="Group_1408" data-name="Group 1408">
        <g id="Group_1407" data-name="Group 1407">
          <path id="Path_3642" data-name="Path 3642" d="M3.313,129.948a3.828,3.828,0,0,0,.156,1.076L1,133.5a6.815,6.815,0,0,1,0-7.1l1.984.342.488,2.131a3.827,3.827,0,0,0-.156,1.076Z" transform="translate(0 -126.4)" fill="#ffda2d"/>
        </g>
      </g>
    </g>
  </g>
  <path id="Path_3643" data-name="Path 3643" d="M248.42,197.643a7,7,0,0,1-2.5,5.331l-2.341-2.341a3.634,3.634,0,0,0,1.142-1.347h-3.31a.407.407,0,0,1-.411-.411v-2.464a.407.407,0,0,1,.411-.411h6.483a.406.406,0,0,1,.4.337A6.966,6.966,0,0,1,248.42,197.643Z" transform="translate(-234.402 -190.634)" fill="#4086f4"/>
  <path id="Path_3644" data-name="Path 3644" d="M259.31,199.286a3.635,3.635,0,0,1-1.142,1.347l2.341,2.341a6.942,6.942,0,0,0,2.377-6.637.406.406,0,0,0-.4-.337H256v3.286Z" transform="translate(-248.991 -190.634)" fill="#4175df"/>
  <path id="Path_3645" data-name="Path 3645" d="M47.037,1.958a.414.414,0,0,1-.115.3l-1.758,1.75a.4.4,0,0,1-.534.041,3.674,3.674,0,0,0-2.218-.739,3.722,3.722,0,0,0-3.54,2.62L36.4,3.461A6.927,6.927,0,0,1,46.889,1.654a.432.432,0,0,1,.148.3Z" transform="translate(-35.403 0)" fill="#ff641a"/>
  <path id="Path_3646" data-name="Path 3646" d="M258.218,4.052a.4.4,0,0,0,.534-.041l1.758-1.75a.414.414,0,0,0,.115-.3.432.432,0,0,0-.148-.3A6.988,6.988,0,0,0,256,0V3.313A3.674,3.674,0,0,1,258.218,4.052Z" transform="translate(-248.991 0)" fill="#f03800"/>
</svg>
