<svg xmlns="http://www.w3.org/2000/svg" width="59.15" height="64.21" viewBox="0 0 59.15 64.21">
  <g id="Group_9360" data-name="Group 9360" transform="translate(-80.2 -345.95)">
    <g id="Group_9358" data-name="Group 9358">
      <path id="Path_3750" data-name="Path 3750" d="M95.42,354.074H81.2a7.11,7.11,0,1,1,14.22,0Z" fill="none" stroke="#265899" stroke-linecap="round" stroke-miterlimit="10" stroke-width="2"/>
      <path id="Path_3751" data-name="Path 3751" d="M95.42,362.9V354.07a7.114,7.114,0,0,0-7.11-7.12H130.5a7.851,7.851,0,0,1,7.85,7.85v54.36H95.42v-31.9" fill="none" stroke="#265899" stroke-linecap="round" stroke-miterlimit="10" stroke-width="2"/>
      <g id="Group_9357" data-name="Group 9357">
        <line id="Line_438" data-name="Line 438" x2="14.656" transform="translate(101.928 357.576)" fill="none" stroke="#265899" stroke-linecap="round" stroke-miterlimit="10" stroke-width="2"/>
        <line id="Line_439" data-name="Line 439" x2="10.107" transform="translate(121.733 357.576)" fill="none" stroke="#265899" stroke-linecap="round" stroke-miterlimit="10" stroke-width="2"/>
        <line id="Line_440" data-name="Line 440" x2="15.256" transform="translate(116.584 364.802)" fill="none" stroke="#265899" stroke-linecap="round" stroke-miterlimit="10" stroke-width="2"/>
        <line id="Line_441" data-name="Line 441" x2="10.107" transform="translate(121.733 372.029)" fill="none" stroke="#265899" stroke-linecap="round" stroke-miterlimit="10" stroke-width="2"/>
        <line id="Line_442" data-name="Line 442" x2="12.189" transform="translate(114.896 379.255)" fill="none" stroke="#265899" stroke-linecap="round" stroke-miterlimit="10" stroke-width="2"/>
        <line id="Line_443" data-name="Line 443" x2="8.952" transform="translate(101.928 386.481)" fill="none" stroke="#265899" stroke-linecap="round" stroke-miterlimit="10" stroke-width="2"/>
        <line id="Line_444" data-name="Line 444" x2="15.256" transform="translate(116.584 386.481)" fill="none" stroke="#265899" stroke-linecap="round" stroke-miterlimit="10" stroke-width="2"/>
        <line id="Line_445" data-name="Line 445" x2="14.656" transform="translate(101.928 393.708)" fill="none" stroke="#265899" stroke-linecap="round" stroke-miterlimit="10" stroke-width="2"/>
        <line id="Line_446" data-name="Line 446" x2="19.529" transform="translate(112.311 400.934)" fill="none" stroke="#265899" stroke-linecap="round" stroke-miterlimit="10" stroke-width="2"/>
      </g>
    </g>
    <g id="Group_9359" data-name="Group 9359">
      <path id="Path_3752" data-name="Path 3752" d="M91.625,379.879a7.026,7.026,0,0,1-3.485-6.159v-.04h7.12" fill="none" stroke="#f89706" stroke-linecap="round" stroke-miterlimit="10" stroke-width="2"/>
      <path id="Path_3753" data-name="Path 3753" d="M105.7,377.912V373.68H88.14a7.112,7.112,0,0,1,7.12-7.07v.07H105.7v-4.232a.84.84,0,0,1,1.436-.591l6.984,7.034a1.83,1.83,0,0,1,0,2.578l-6.984,7.034A.84.84,0,0,1,105.7,377.912Z" fill="none" stroke="#f89706" stroke-linecap="round" stroke-miterlimit="10" stroke-width="2"/>
    </g>
  </g>
</svg>
