<svg xmlns="http://www.w3.org/2000/svg" width="22.25" height="21.508" viewBox="0 0 22.25 21.508">
  <g id="help-desk" transform="translate(0 -1.125)">
    <path id="Path_3678" data-name="Path 3678" d="M26.925,11.25h-4.45a2.227,2.227,0,0,0-2.225,2.225v4.45a1.485,1.485,0,0,0,1.483,1.483V24.6a1.485,1.485,0,0,0,1.483,1.483h2.967A1.485,1.485,0,0,0,27.667,24.6V19.408a1.485,1.485,0,0,0,1.483-1.483v-4.45a2.227,2.227,0,0,0-2.225-2.225Zm.742,6.675H26.183V24.6H23.217V17.925H21.733v-4.45a.742.742,0,0,1,.742-.742h4.45a.742.742,0,0,1,.742.742Z" transform="translate(-6.9 -3.45)" fill="#fff"/>
    <path id="Path_3679" data-name="Path 3679" d="M22.5,4.092a2.967,2.967,0,1,1,2.967,2.967A2.967,2.967,0,0,1,22.5,4.092Zm1.483,0a1.483,1.483,0,1,0,1.483-1.483A1.483,1.483,0,0,0,23.983,4.092Z" transform="translate(-7.667 0)" fill="#fff"/>
    <path id="Path_3680" data-name="Path 3680" d="M10.383,15.7V13.475A2.227,2.227,0,0,0,8.158,11.25H3.708a2.227,2.227,0,0,0-2.225,2.225V15.7H0v1.483H11.867V15.7ZM2.967,13.475a.742.742,0,0,1,.742-.742h4.45a.742.742,0,0,1,.742.742V15.7H2.967Z" transform="translate(0 -3.45)" fill="#fff"/>
    <path id="Path_3681" data-name="Path 3681" d="M4.5,4.092A2.967,2.967,0,1,1,7.467,7.058,2.967,2.967,0,0,1,4.5,4.092Zm1.483,0A1.483,1.483,0,1,0,7.467,2.608,1.483,1.483,0,0,0,5.983,4.092Z" transform="translate(-1.533 0)" fill="#fff"/>
  </g>
</svg>
