<svg id="icons_Q2" data-name="icons Q2" xmlns="http://www.w3.org/2000/svg" width="19.805" height="19.756" viewBox="0 0 19.805 19.756">
  <path id="Path_3692" data-name="Path 3692" d="M13.9,5.782h4.011a5.347,5.347,0,0,1,1.832.347,3.317,3.317,0,0,1,1.882,1.882,5.347,5.347,0,0,1,.347,1.832c.05,1.04.05,1.386.05,4.011s0,2.971-.05,4.011a5.347,5.347,0,0,1-.347,1.832,3.317,3.317,0,0,1-1.882,1.882,5.347,5.347,0,0,1-1.832.347H9.892a5.348,5.348,0,0,1-1.832-.347A3.317,3.317,0,0,1,6.179,19.7a5.347,5.347,0,0,1-.347-1.832c-.05-1.04-.05-1.386-.05-4.011s0-2.971.05-4.011a5.347,5.347,0,0,1,.347-1.832A3.317,3.317,0,0,1,8.06,6.129a5.347,5.347,0,0,1,1.832-.347H13.9M13.9,4H9.843a8.863,8.863,0,0,0-2.426.446A4.951,4.951,0,0,0,5.683,5.683,4.209,4.209,0,0,0,4.545,7.416a7.18,7.18,0,0,0-.5,2.426C4,10.882,4,11.229,4,13.9s0,3.02.05,4.06a7.179,7.179,0,0,0,.5,2.426,4.209,4.209,0,0,0,1.139,1.733,4.209,4.209,0,0,0,1.733,1.139,7.179,7.179,0,0,0,2.426.5h8.12a7.179,7.179,0,0,0,2.426-.5,4.209,4.209,0,0,0,1.733-1.139,4.951,4.951,0,0,0,1.188-1.733,8.863,8.863,0,0,0,.446-2.426c.05-1.04.05-1.386.05-4.06s0-3.02-.05-4.06a8.863,8.863,0,0,0-.446-2.426,4.951,4.951,0,0,0-1.188-1.733A4.951,4.951,0,0,0,20.389,4.5a8.863,8.863,0,0,0-2.426-.446H13.9" transform="translate(-4 -4)" fill="#4c5c6f"/>
  <path id="Path_3693" data-name="Path 3693" d="M18.8,13.7a5.1,5.1,0,1,0,5.1,5.1,5.1,5.1,0,0,0-5.1-5.1m0,8.417A3.317,3.317,0,1,1,22.117,18.8,3.317,3.317,0,0,1,18.8,22.117" transform="translate(-8.897 -8.897)" fill="#4c5c6f"/>
  <path id="Path_3694" data-name="Path 3694" d="M34.677,12.088A1.188,1.188,0,1,1,33.488,10.9a1.188,1.188,0,0,1,1.188,1.188" transform="translate(-18.288 -7.484)" fill="#4c5c6f"/>
</svg>
