<svg xmlns="http://www.w3.org/2000/svg" width="59.976" height="71.33" viewBox="0 0 59.976 71.33">
  <g id="Group_9354" data-name="Group 9354" transform="translate(-280.051 -205.06)">
    <path id="Path_3732" data-name="Path 3732" d="M296.1,213.18h-14.22a7.11,7.11,0,1,1,14.22,0Z" fill="none" stroke="#265899" stroke-linecap="round" stroke-linejoin="round" stroke-miterlimit="10" stroke-width="2"/>
    <path id="Path_3734" data-name="Path 3734" d="M331.091,268.27v7.12h-42.93V220.3a7.114,7.114,0,0,0-7.11-7.12h14.734" fill="none" stroke="#f89706" stroke-linecap="round" stroke-linejoin="round" stroke-miterlimit="10" stroke-width="2"/>
    <line id="Line_414" data-name="Line 414" x2="10.787" transform="translate(322.742 216.448)" fill="none" stroke="#265899" stroke-linecap="round" stroke-miterlimit="10" stroke-width="2"/>
    <line id="Line_415" data-name="Line 415" x2="18.569" transform="translate(314.96 223.675)" fill="none" stroke="#265899" stroke-linecap="round" stroke-miterlimit="10" stroke-width="2"/>
    <line id="Line_416" data-name="Line 416" x2="19.522" transform="translate(314.007 230.901)" fill="none" stroke="#265899" stroke-linecap="round" stroke-miterlimit="10" stroke-width="2"/>
    <line id="Line_417" data-name="Line 417" x2="22.163" transform="translate(301.605 238.127)" fill="none" stroke="#265899" stroke-linecap="round" stroke-miterlimit="10" stroke-width="2"/>
    <line id="Line_418" data-name="Line 418" x2="9.554" transform="translate(301.605 245.354)" fill="none" stroke="#265899" stroke-linecap="round" stroke-miterlimit="10" stroke-width="2"/>
    <line id="Line_419" data-name="Line 419" x2="16.282" transform="translate(317.247 245.354)" fill="none" stroke="#265899" stroke-linecap="round" stroke-miterlimit="10" stroke-width="2"/>
    <line id="Line_420" data-name="Line 420" x2="15.642" transform="translate(301.605 252.58)" fill="none" stroke="#265899" stroke-linecap="round" stroke-miterlimit="10" stroke-width="2"/>
    <line id="Line_421" data-name="Line 421" x2="20.843" transform="translate(312.687 259.806)" fill="none" stroke="#265899" stroke-linecap="round" stroke-miterlimit="10" stroke-width="2"/>
    <g id="Group_9349" data-name="Group 9349">
      <path id="Path_3735" data-name="Path 3735" d="M302.581,217.462a3.8,3.8,0,1,1,3.8,3.8v4.119" fill="none" stroke="#f89706" stroke-linecap="round" stroke-linejoin="round" stroke-miterlimit="10" stroke-width="2"/>
      <line id="Line_422" data-name="Line 422" y2="0.965" transform="translate(306.383 228.89)" fill="none" stroke="#f89706" stroke-linecap="round" stroke-miterlimit="10" stroke-width="2"/>
    </g>
    <path id="Path_3733" data-name="Path 3733" d="M339.027,213.906V268.27H296.1V213.18a7.114,7.114,0,0,0-7.11-7.12h42.194A7.846,7.846,0,0,1,339.027,213.906Z" fill="none" stroke="#265899" stroke-linecap="round" stroke-linejoin="round" stroke-miterlimit="10" stroke-width="2"/>
  </g>
</svg>
