<svg xmlns="http://www.w3.org/2000/svg" width="18.699" height="18.285" viewBox="0 0 18.699 18.285">
  <path id="phone-handset-line" d="M15.472,19.938a2.555,2.555,0,0,1-.541-.06,18.352,18.352,0,0,1-8.994-4.735A17.7,17.7,0,0,1,1.065,6.349,2.479,2.479,0,0,1,1.8,4.033L3.961,1.949a1.058,1.058,0,0,1,1.618.179l2.706,4a.866.866,0,0,1-.06,1.028L6.867,8.779a10.25,10.25,0,0,0,2.257,3.188,10.423,10.423,0,0,0,3.285,2.213l1.683-1.337a.888.888,0,0,1,1.007-.065l4.086,2.641a1.082,1.082,0,0,1,.222,1.683L17.3,19.191A2.565,2.565,0,0,1,15.472,19.938ZM4.707,2.728,2.543,4.812a1.375,1.375,0,0,0-.406,1.3,16.614,16.614,0,0,0,4.551,8.258,17.264,17.264,0,0,0,8.464,4.454,1.488,1.488,0,0,0,1.353-.4l2.111-2.089-3.945-2.549-1.808,1.44a.541.541,0,0,1-.5.092,10.856,10.856,0,0,1-3.983-2.571,10.548,10.548,0,0,1-2.636-3.9.541.541,0,0,1,.13-.514L7.338,6.587Z" transform="translate(-1.013 -1.653)" fill="#3d8bf2"/>
</svg>
