<svg xmlns="http://www.w3.org/2000/svg" width="76.475" height="57.125" viewBox="0 0 76.475 57.125">
  <g id="Group_9353" data-name="Group 9353" transform="translate(-270.497 -348.02)">
    <g id="Group_9351" data-name="Group 9351">
      <rect id="Rectangle_2194" data-name="Rectangle 2194" width="18.871" height="18.871" rx="3.94" transform="translate(271.497 349.02)" fill="none" stroke="#265899" stroke-linecap="round" stroke-miterlimit="10" stroke-width="2"/>
      <path id="Path_3736" data-name="Path 3736" d="M276.939,363.278l4.069-9.645,3.918,9.645" fill="none" stroke="#265899" stroke-linecap="round" stroke-linejoin="round" stroke-width="2"/>
      <line id="Line_423" data-name="Line 423" x2="5.303" transform="translate(278.338 360.789)" fill="none" stroke="#265899" stroke-linecap="round" stroke-linejoin="round" stroke-width="2"/>
      <line id="Line_424" data-name="Line 424" x2="10.168" transform="translate(295.214 353.633)" fill="none" stroke="#265899" stroke-linecap="round" stroke-miterlimit="10" stroke-width="2"/>
      <line id="Line_425" data-name="Line 425" x2="6.847" transform="translate(295.214 360.789)" fill="none" stroke="#265899" stroke-linecap="round" stroke-miterlimit="10" stroke-width="2"/>
      <rect id="Rectangle_2195" data-name="Rectangle 2195" width="18.871" height="18.871" rx="3.94" transform="translate(312.087 349.02)" fill="none" stroke="#265899" stroke-linecap="round" stroke-miterlimit="10" stroke-width="2"/>
      <line id="Line_426" data-name="Line 426" x2="10.168" transform="translate(335.804 353.633)" fill="none" stroke="#265899" stroke-linecap="round" stroke-miterlimit="10" stroke-width="2"/>
      <line id="Line_427" data-name="Line 427" x2="6.847" transform="translate(335.804 360.789)" fill="none" stroke="#265899" stroke-linecap="round" stroke-miterlimit="10" stroke-width="2"/>
      <rect id="Rectangle_2196" data-name="Rectangle 2196" width="18.871" height="18.871" rx="3.94" transform="translate(312.087 378.753)" fill="none" stroke="#265899" stroke-linecap="round" stroke-miterlimit="10" stroke-width="2"/>
      <line id="Line_428" data-name="Line 428" x2="10.168" transform="translate(335.804 383.366)" fill="none" stroke="#265899" stroke-linecap="round" stroke-miterlimit="10" stroke-width="2"/>
      <line id="Line_429" data-name="Line 429" x2="6.847" transform="translate(335.804 390.522)" fill="none" stroke="#265899" stroke-linecap="round" stroke-miterlimit="10" stroke-width="2"/>
      <path id="Path_3737" data-name="Path 3737" d="M325.242,361.525a4.823,4.823,0,1,1-.414-6.58" fill="none" stroke="#265899" stroke-linecap="round" stroke-miterlimit="10" stroke-width="2"/>
      <path id="Path_3738" data-name="Path 3738" d="M320.826,392.737a4.822,4.822,0,1,0,0-9.645h-2.74v9.645Z" fill="none" stroke="#265899" stroke-linecap="round" stroke-miterlimit="10" stroke-width="2"/>
    </g>
    <g id="Group_9352" data-name="Group 9352">
      <path id="Path_3739" data-name="Path 3739" d="M281.632,397.624h-6.194a3.94,3.94,0,0,1-3.941-3.94v-10.99a3.941,3.941,0,0,1,3.941-3.941h10.99a3.941,3.941,0,0,1,3.94,3.941v9.069" fill="none" stroke="#f89706" stroke-linecap="round" stroke-miterlimit="10" stroke-width="2"/>
      <line id="Line_430" data-name="Line 430" x2="10.168" transform="translate(295.214 383.366)" fill="none" stroke="#f89706" stroke-linecap="round" stroke-miterlimit="10" stroke-width="2"/>
      <line id="Line_431" data-name="Line 431" x2="6.847" transform="translate(295.214 390.522)" fill="none" stroke="#f89706" stroke-linecap="round" stroke-miterlimit="10" stroke-width="2"/>
      <line id="Line_432" data-name="Line 432" y2="9.097" transform="translate(278.603 383.366)" fill="none" stroke="#f89706" stroke-linecap="round" stroke-linejoin="round" stroke-width="2"/>
      <path id="Path_3740" data-name="Path 3740" d="M278.6,383.366h2.385a2.275,2.275,0,0,1,2.274,2.275h0a2.274,2.274,0,0,1-2.274,2.274H278.6" fill="none" stroke="#f89706" stroke-linecap="round" stroke-linejoin="round" stroke-width="2"/>
      <path id="Path_3741" data-name="Path 3741" d="M278.6,387.915h2.385a2.274,2.274,0,0,1,2.274,2.274h0a2.274,2.274,0,0,1-2.274,2.274H278.6" fill="none" stroke="#f89706" stroke-linecap="round" stroke-linejoin="round" stroke-width="2"/>
    </g>
    <path id="Path_3742" data-name="Path 3742" d="M285.724,393.708l-.734,8.391,2.87-1.339,2.116,3.386,2.553-1.663-2.034-3.4,2.966-1.483Z" fill="none" stroke="#265899" stroke-linecap="round" stroke-linejoin="round" stroke-width="2"/>
  </g>
</svg>
