<svg xmlns="http://www.w3.org/2000/svg" width="42.914" height="54.002" viewBox="0 0 42.914 54.002">
  <g id="Group_1416" data-name="Group 1416" transform="translate(-214.915 -533.53)">
    <path id="Path_3670" data-name="Path 3670" d="M243.85,546.46v7.871a8.645,8.645,0,0,1-3.618,7.047,8.548,8.548,0,0,1-3.139,1.414,9.014,9.014,0,0,1-1.915.211,8.673,8.673,0,0,1-8.673-8.673V546.46Z" transform="translate(1.2 1.352)" fill="none" stroke="#3d8bf2" stroke-linecap="round" stroke-linejoin="round" stroke-miterlimit="10" stroke-width="2"/>
    <path id="Path_3671" data-name="Path 3671" d="M246.377,542.014v5.066H224.445v-5.066c.1-.022.189-.033.289-.056h.011c.668-.123,1.325-.234,1.993-.323a58.81,58.81,0,0,1,17.345,0c.523.078,1.046.156,1.57.256C245.9,541.925,246.132,541.969,246.377,542.014Z" transform="translate(0.966 0.732)" fill="#3d8bf2" stroke="#3d8bf2" stroke-linecap="round" stroke-linejoin="round" stroke-miterlimit="10" stroke-width="2"/>
    <path id="Path_3672" data-name="Path 3672" d="M253.153,541.254l-6.8,1.369c-.523-.1-1.047-.178-1.57-.256a58.81,58.81,0,0,0-17.345,0c-.668.089-1.325.2-1.993.323h-.011l-5.912-1.191-1.236-.245,17.434-6.724Z" transform="translate(0.269 0)" fill="#3d8bf2" stroke="#3d8bf2" stroke-linecap="round" stroke-linejoin="round" stroke-miterlimit="10" stroke-width="2"/>
    <path id="Path_3673" data-name="Path 3673" d="M234.316,573.565l-12.124-7.114-.167-.1,7.826-3.841a25.352,25.352,0,0,0,.468,3.841C230.876,569.112,232.011,571.973,234.316,573.565Z" transform="translate(0.692 3.17)" fill="#3d8bf2" stroke="#3d8bf2" stroke-linecap="round" stroke-linejoin="round" stroke-miterlimit="10" stroke-width="2"/>
    <path id="Path_3674" data-name="Path 3674" d="M247.116,566.351l-.045.033-12.246,7.181c2.3-1.592,3.44-4.453,4-7.214a25.348,25.348,0,0,0,.468-3.841Z" transform="translate(2.142 3.17)" fill="#3d8bf2" stroke="#3d8bf2" stroke-linecap="round" stroke-linejoin="round" stroke-miterlimit="10" stroke-width="2"/>
    <path id="Path_3675" data-name="Path 3675" d="M256.829,574.117v8.851H215.915v-8.851a8.138,8.138,0,0,1,6.969-8.06l12.124,7.114.98.579.98-.579,12.246-7.181A8.124,8.124,0,0,1,256.829,574.117Z" transform="translate(0 3.564)" fill="none" stroke="#3d8bf2" stroke-linecap="round" stroke-linejoin="round" stroke-miterlimit="10" stroke-width="2"/>
    <path id="Path_3676" data-name="Path 3676" d="M239.947,562.87a25.339,25.339,0,0,1-.468,3.841c-.557,2.761-1.692,5.622-4,7.214l-.98.579-.98-.579c-2.3-1.592-3.44-4.453-4-7.214a25.339,25.339,0,0,1-.468-3.841,26.872,26.872,0,0,1,.045-3.54,8.652,8.652,0,0,0,5.789,2.215,9.006,9.006,0,0,0,1.915-.212,8.55,8.55,0,0,0,3.139-1.414C239.969,560.532,240,561.59,239.947,562.87Z" transform="translate(1.485 2.81)" fill="none" stroke="#3d8bf2" stroke-linecap="round" stroke-linejoin="round" stroke-miterlimit="10" stroke-width="2"/>
    <line id="Line_384" data-name="Line 384" y2="8.689" transform="translate(219.788 541.499)" fill="none" stroke="#3d8bf2" stroke-linecap="round" stroke-miterlimit="10" stroke-width="2"/>
    <circle id="Ellipse_229" data-name="Ellipse 229" cx="1.832" cy="1.832" r="1.832" transform="translate(217.956 550.188)" fill="none" stroke="#3d8bf2" stroke-linecap="round" stroke-linejoin="round" stroke-miterlimit="10" stroke-width="2"/>
    <path id="Path_3677" data-name="Path 3677" d="M231.7,556.254a4.511,4.511,0,0,0,2.891.965,4.663,4.663,0,0,0,2.6-.747" transform="translate(1.789 2.461)" fill="none" stroke="#3d8bf2" stroke-linecap="round" stroke-linejoin="round" stroke-miterlimit="10" stroke-width="2"/>
  </g>
</svg>
