<svg xmlns="http://www.w3.org/2000/svg" width="38.677" height="53.291" viewBox="0 0 38.677 53.291">
  <g id="Group_1415" data-name="Group 1415" transform="translate(-241.272 -687.85)">
    <path id="Path_3654" data-name="Path 3654" d="M278.643,707.37v.268c-.164-.069-.328-.138-.493-.216A2.388,2.388,0,0,1,278.643,707.37Z" transform="translate(-4.819 -2.512)" fill="none" stroke="#99a2ad" stroke-linecap="round" stroke-linejoin="round" stroke-miterlimit="10" stroke-width="2"/>
    <path id="Path_3655" data-name="Path 3655" d="M248.66,711.962v-.3a1.778,1.778,0,0,0,.017.3Z" transform="translate(-0.819 -3.094)" fill="none" stroke="#99a2ad" stroke-linecap="round" stroke-linejoin="round" stroke-miterlimit="10" stroke-width="2"/>
    <path id="Path_3656" data-name="Path 3656" d="M278.42,703.734v4.832a3.694,3.694,0,0,0-1.115-2.645,3.639,3.639,0,0,0-2.584-1.063h-.078a2.379,2.379,0,0,0-.493.052,18.554,18.554,0,0,1-6.785-5.653c-2.533,4.97-9.776,5.627-15.005,5.393v.208a3.7,3.7,0,0,0-3.7,3.708v-4.832a14.88,14.88,0,1,1,29.76,0Z" transform="translate(-0.819 0)" fill="#99a2ad" stroke="#99a2ad" stroke-linecap="round" stroke-linejoin="round" stroke-miterlimit="10" stroke-width="2"/>
    <path id="Path_3657" data-name="Path 3657" d="M278.643,707.37v.268c-.164-.069-.328-.138-.493-.216A2.388,2.388,0,0,1,278.643,707.37Z" transform="translate(-4.819 -2.512)" fill="none" stroke="#99a2ad" stroke-linecap="round" stroke-linejoin="round" stroke-miterlimit="10" stroke-width="2"/>
    <path id="Path_3658" data-name="Path 3658" d="M283.087,711.66v.3h-.017A1.778,1.778,0,0,0,283.087,711.66Z" transform="translate(-5.487 -3.094)" fill="none" stroke="#99a2ad" stroke-linecap="round" stroke-linejoin="round" stroke-miterlimit="10" stroke-width="2"/>
    <path id="Path_3659" data-name="Path 3659" d="M282.1,730.991v13.942H265.83V724.18h.043v1.876l6.344,4.063V724.18h3.077A6.806,6.806,0,0,1,282.1,730.991Z" transform="translate(-3.148 -4.792)" fill="#fff" stroke="#99a2ad" stroke-linecap="round" stroke-linejoin="round" stroke-miterlimit="10" stroke-width="2"/>
    <path id="Path_3660" data-name="Path 3660" d="M263.243,726.056v18.877H256.9v-6.18h-2.913a3.578,3.578,0,0,0-1.884.536l-5.342-10.294a6.8,6.8,0,0,1,6.509-4.815h3.63v5.938Z" transform="translate(-0.562 -4.792)" fill="#fff" stroke="#99a2ad" stroke-linecap="round" stroke-linejoin="round" stroke-miterlimit="10" stroke-width="2"/>
    <path id="Path_3661" data-name="Path 3661" d="M252.056,740.044a3.573,3.573,0,0,0-1.685,3.034v2.61h-3.95V731.747a6.887,6.887,0,0,1,.294-2Z" transform="translate(-0.515 -5.548)" fill="#fff" stroke="#99a2ad" stroke-linecap="round" stroke-linejoin="round" stroke-miterlimit="10" stroke-width="2"/>
    <path id="Path_3662" data-name="Path 3662" d="M264.834,724.18v1.876l-6.344,4.063V724.18Z" transform="translate(-2.153 -4.792)" fill="#fff" stroke="#99a2ad" stroke-linecap="round" stroke-linejoin="round" stroke-miterlimit="10" stroke-width="2"/>
    <path id="Path_3663" data-name="Path 3663" d="M272.224,724.18v5.938l-6.344-4.062V724.18Z" transform="translate(-3.155 -4.792)" fill="#fff" stroke="#99a2ad" stroke-linecap="round" stroke-linejoin="round" stroke-miterlimit="10" stroke-width="2"/>
    <path id="Path_3664" data-name="Path 3664" d="M257.473,741.04v6.18H250.99v-2.61a3.565,3.565,0,0,1,3.57-3.57Z" transform="translate(-1.135 -7.079)" fill="none" stroke="#99a2ad" stroke-linecap="round" stroke-linejoin="round" stroke-miterlimit="10" stroke-width="2"/>
    <line id="Line_383" data-name="Line 383" x1="3.578" y1="6.906" transform="translate(242.62 717.296)" fill="none" stroke="#99a2ad" stroke-linecap="round" stroke-miterlimit="10" stroke-width="2"/>
    <path id="Path_3665" data-name="Path 3665" d="M253.085,714.708a3.344,3.344,0,0,1-.726.078,3.689,3.689,0,0,1-3.682-3.406,1.778,1.778,0,0,1-.017-.3,3.7,3.7,0,0,1,3.7-3.708v3.388c0,.207.009.415.017.622A10.884,10.884,0,0,0,253.085,714.708Z" transform="translate(-0.819 -2.512)" fill="none" stroke="#99a2ad" stroke-linecap="round" stroke-linejoin="round" stroke-miterlimit="10" stroke-width="2"/>
    <path id="Path_3666" data-name="Path 3666" d="M275.223,706.759v3.12c0,.207-.009.415-.017.622a10.821,10.821,0,0,1-.7,3.319,11.182,11.182,0,0,1-10.381,7.2h-.043a11.138,11.138,0,0,1-10.415-7.191,10.882,10.882,0,0,1-.709-3.328c-.009-.207-.017-.415-.017-.622v-3.6c5.229.233,12.473-.423,15.005-5.394a18.553,18.553,0,0,0,6.785,5.653C274.895,706.621,275.059,706.69,275.223,706.759Z" transform="translate(-1.4 -1.633)" fill="none" stroke="#99a2ad" stroke-linecap="round" stroke-linejoin="round" stroke-miterlimit="10" stroke-width="2"/>
    <path id="Path_3667" data-name="Path 3667" d="M282.385,711.078a1.778,1.778,0,0,1-.017.3,3.7,3.7,0,0,1-3.682,3.406,3.448,3.448,0,0,1-.8-.087,10.822,10.822,0,0,0,.7-3.319c.009-.207.017-.415.017-.622V707.37h.078a3.639,3.639,0,0,1,2.584,1.063A3.694,3.694,0,0,1,282.385,711.078Z" transform="translate(-4.784 -2.512)" fill="none" stroke="#99a2ad" stroke-linecap="round" stroke-linejoin="round" stroke-miterlimit="10" stroke-width="2"/>
    <path id="Path_3668" data-name="Path 3668" d="M278.643,707.37v.268c-.164-.069-.328-.138-.493-.216A2.388,2.388,0,0,1,278.643,707.37Z" transform="translate(-4.819 -2.512)" fill="none" stroke="#99a2ad" stroke-linecap="round" stroke-linejoin="round" stroke-miterlimit="10" stroke-width="2"/>
    <path id="Path_3669" data-name="Path 3669" d="M263.412,718.446a3.507,3.507,0,0,0,2.245.749,3.627,3.627,0,0,0,2.022-.58" transform="translate(-2.82 -4.014)" fill="none" stroke="#99a2ad" stroke-linecap="round" stroke-linejoin="round" stroke-miterlimit="10" stroke-width="2"/>
  </g>
</svg>
