<svg id="tik-tok" xmlns="http://www.w3.org/2000/svg" width="15.982" height="18.102" viewBox="0 0 15.982 18.102">
  <g id="Group_1580" data-name="Group 1580" transform="translate(2.095 0.817)">
    <path id="Path_3695" data-name="Path 3695" d="M111.877,211.774a2.548,2.548,0,0,0-1.324,4.746,2.508,2.508,0,0,1-.408-1.338,2.568,2.568,0,0,1,2.584-2.592,2.669,2.669,0,0,1,.813.128V209.86a5.62,5.62,0,0,0-.813-.06h-.039v2.1A2.669,2.669,0,0,0,111.877,211.774Z" transform="translate(-108.564 -203.204)" fill="#4c5c6f"/>
    <path id="Path_3696" data-name="Path 3696" d="M336.96,24h-.76a4.365,4.365,0,0,0,1.651,2.631A4.4,4.4,0,0,1,336.96,24Z" transform="translate(-327.417 -24)" fill="#4c5c6f"/>
    <path id="Path_3697" data-name="Path 3697" d="M102.688,144.378a4.42,4.42,0,0,1-.816-.078v2.048a7.042,7.042,0,0,1-2.783-.564,7.272,7.272,0,0,1-1.583-.923l.014,6.316a5.283,5.283,0,0,1-1.583,3.756,5.385,5.385,0,0,1-3.01,1.505,5.62,5.62,0,0,1-.813.06,5.392,5.392,0,0,1-3.312-1.122,4.811,4.811,0,0,0,.344.373,5.41,5.41,0,0,0,3.823,1.566,5.62,5.62,0,0,0,.813-.06,5.385,5.385,0,0,0,3.01-1.505,5.283,5.283,0,0,0,1.583-3.756l-.053-6.316a6.973,6.973,0,0,0,1.583.923,7.13,7.13,0,0,0,2.783.564" transform="translate(-88.8 -140.029)" fill="#4c5c6f"/>
  </g>
  <path id="Path_3698" data-name="Path 3698" d="M32.228,189.189a5.4,5.4,0,0,1,3.791-1.573v-.756a5.62,5.62,0,0,0-.813-.06,5.4,5.4,0,0,0-3.83,1.573,5.306,5.306,0,0,0,.007,7.554,5.408,5.408,0,0,0,.508.444,5.288,5.288,0,0,1-1.243-3.4A5.352,5.352,0,0,1,32.228,189.189Z" transform="translate(-29.8 -180.204)" fill="#4c5c6f"/>
  <path id="Path_3699" data-name="Path 3699" d="M385.434,99.74v-.76h-.007a4.333,4.333,0,0,1-2.627-.88A4.337,4.337,0,0,0,385.434,99.74Z" transform="translate(-370.268 -94.653)" fill="#4c5c6f"/>
  <path id="Path_3700" data-name="Path 3700" d="M146.831,16.308a2.667,2.667,0,0,0,.958-.124,2.558,2.558,0,0,0,1.771-2.425l0-4.225V1.817h2.031A4.421,4.421,0,0,1,151.51,1h-2.8V8.714l0,4.225a2.558,2.558,0,0,1-1.771,2.425,2.519,2.519,0,0,1-.959.124,2.6,2.6,0,0,1-1.179-.359A2.59,2.59,0,0,0,146.831,16.308Z" transform="translate(-140.717 -1)" fill="#4c5c6f"/>
  <path id="Path_3701" data-name="Path 3701" d="M59.167,40.408a5.385,5.385,0,0,0,3.01-1.505,5.283,5.283,0,0,0,1.583-3.756l-.014-6.315a6.974,6.974,0,0,0,1.583.923,7.13,7.13,0,0,0,2.783.564V28.271a4.337,4.337,0,0,1-2.634-1.64A4.349,4.349,0,0,1,63.828,24H61.794v7.714l0,4.225a2.558,2.558,0,0,1-1.771,2.425,2.519,2.519,0,0,1-.959.124,2.59,2.59,0,0,1-2.031-1.175,2.548,2.548,0,0,1,1.324-4.746,2.669,2.669,0,0,1,.813.128v-2.1a5.4,5.4,0,0,0-3.791,1.573A5.317,5.317,0,0,0,53.8,35.939a5.249,5.249,0,0,0,1.243,3.4,5.4,5.4,0,0,0,3.312,1.122,5.158,5.158,0,0,0,.813-.057Z" transform="translate(-52.948 -23.184)" fill="#4c5c6f"/>
</svg>
