<svg id="icons_Q2" data-name="icons Q2" xmlns="http://www.w3.org/2000/svg" width="19.805" height="19.805" viewBox="0 0 19.805 19.805">
  <g id="post-tumblr">
    <path id="Path_3691" data-name="Path 3691" d="M21.825,4H5.981A1.981,1.981,0,0,0,4,5.981V21.825a1.981,1.981,0,0,0,1.981,1.981H21.825a1.981,1.981,0,0,0,1.981-1.981V5.981A1.981,1.981,0,0,0,21.825,4Zm-3.961,8.912H14.893v3.862c0,.693.1,1.089,1.089,1.089h1.882v2.971s-.99.1-2.08.1c-2.575,0-3.862-1.584-3.862-3.367V12.912H9.942V10.14c2.377-.2,2.575-1.981,2.773-3.169h2.179V9.942h2.971Z" transform="translate(-4 -4)" fill="#3dd6f2"/>
  </g>
</svg>
