<svg id="Fav_Sub_Icon" data-name="Fav Sub Icon" xmlns="http://www.w3.org/2000/svg" width="21" height="20" viewBox="0 0 21 20">
  <g id="Fav_Sub_Icon-2" data-name="Fav Sub Icon" fill="#ffe7c3">
    <path d="M 15.22332000732422 18.0743522644043 C 15.1257495880127 18.07436180114746 15.03118991851807 18.04329299926758 14.94227981567383 17.98202133178711 L 11.35118007659912 15.50722217559814 C 11.0997200012207 15.33392238616943 10.80539035797119 15.24232196807861 10.5 15.24233245849609 C 10.19460964202881 15.24232196807861 9.900279998779297 15.33392238616943 9.648819923400879 15.50722217559814 L 6.057720184326172 17.98202133178711 C 5.968820095062256 18.04328155517578 5.874249935150146 18.0743522644043 5.77662992477417 18.0743522644043 C 5.620969772338867 18.0743522644043 5.463840007781982 17.9934024810791 5.366559982299805 17.86310195922852 C 5.300970077514648 17.77524185180664 5.235249996185303 17.62847137451172 5.29463005065918 17.42819213867188 L 6.53665018081665 13.23887252807617 C 6.711949825286865 12.64756202697754 6.500999927520752 11.99800205230713 6.011720180511475 11.62253189086914 L 2.546550035476685 8.963312149047852 C 2.286370038986206 8.763642311096191 2.349829912185669 8.490852355957031 2.375479936599731 8.412002563476563 C 2.401119947433472 8.333142280578613 2.510289907455444 8.075212478637695 2.838160037994385 8.066822052001953 L 7.199540138244629 7.955152034759521 C 7.817039966583252 7.939342021942139 8.370050430297852 7.537352085113525 8.575639724731445 6.954862117767334 L 10.02851009368896 2.838292121887207 C 10.13774967193604 2.528752326965332 10.41701030731201 2.50470232963562 10.5 2.50470232963562 C 10.58298969268799 2.50470232963562 10.86225032806396 2.528752326965332 10.97148990631104 2.838292121887207 L 12.42436027526855 6.954862117767334 C 12.62994956970215 7.537352085113525 13.18295955657959 7.939342021942139 13.80045986175537 7.955152034759521 L 18.16184043884277 8.066822052001953 C 18.48970985412598 8.075212478637695 18.59886932373047 8.333142280578613 18.62451934814453 8.411992073059082 C 18.65016937255859 8.490841865539551 18.7136402130127 8.763642311096191 18.45344924926758 8.963312149047852 L 14.98828029632568 11.62253189086914 C 14.49899959564209 11.99800205230713 14.28804969787598 12.64756202697754 14.46335029602051 13.23887252807617 L 15.70536994934082 17.42819213867188 C 15.76473045349121 17.6284122467041 15.69902038574219 17.77517318725586 15.6334400177002 17.86302185058594 C 15.53614044189453 17.99336242675781 15.37899971008301 18.07433319091797 15.22332000732422 18.0743522644043 Z" stroke="none"/>
    <path d="M 10.5 3.004692077636719 L 9.04712963104248 7.121262550354004 C 8.773019790649414 7.897932052612305 8.035670280456543 8.43391227722168 7.212340354919434 8.454981803894043 L 2.850959777832031 8.566652297973633 C 2.850957870483398 8.566652297973633 2.850955963134766 8.566652297973633 2.850955963134766 8.566652297973633 C 2.850954055786133 8.566653251647949 2.850954055786133 8.566654205322266 2.850950241088867 8.566652297973633 L 6.316120147705078 11.22586250305176 C 6.968500137329102 11.72650241851807 7.249770164489746 12.59258270263672 7.016019821166992 13.3809928894043 L 5.77400016784668 17.5703125 L 9.365090370178223 15.09552192687988 C 9.700369834899902 14.86445236206055 10.0928201675415 14.74232292175293 10.5 14.74232292175293 C 10.9071798324585 14.74232292175293 11.2996301651001 14.86445236206055 11.63490009307861 15.09551239013672 L 15.22598743438721 17.57031059265137 C 15.22599029541016 17.57030868530273 15.22599411010742 17.57030487060547 15.22599983215332 17.5703125 L 13.98398017883301 13.3809928894043 C 13.75022983551025 12.59258270263672 14.0314998626709 11.72650241851807 14.68387985229492 11.22587203979492 L 18.1490478515625 8.566654205322266 C 18.14904594421387 8.566653251647949 18.14904594421387 8.566653251647949 18.14904594421387 8.566652297973633 C 18.14904403686523 8.566652297973633 18.1490421295166 8.566652297973633 18.14904022216797 8.566652297973633 L 13.78767013549805 8.454981803894043 C 12.96432971954346 8.43391227722168 12.22698020935059 7.897932052612305 11.95287036895752 7.121262550354004 L 10.5 3.004692077636719 M 10.5 2.004697799682617 C 10.89300537109375 2.004697799682617 11.28600978851318 2.227092742919922 11.44299030303955 2.671882629394531 L 12.89585971832275 6.7884521484375 C 13.03384971618652 7.179431915283203 13.39879035949707 7.4447021484375 13.81326007843018 7.45531177520752 L 18.17464065551758 7.566982269287109 C 19.11689949035645 7.591102600097656 19.5056095123291 8.786131858825684 18.75785064697266 9.35997200012207 L 15.29267978668213 12.01919269561768 C 14.96417999267578 12.27128219604492 14.82502937316895 12.69975185394287 14.94272994995117 13.09675216674805 L 16.18474960327148 17.28607177734375 C 16.39011383056641 17.97876167297363 15.84071922302246 18.57435035705566 15.22336673736572 18.57435035705566 C 15.0348949432373 18.57435035705566 14.84016799926758 18.51888465881348 14.65855026245117 18.39372253417969 L 11.06744956970215 15.91892242431641 C 10.89661979675293 15.80119228363037 10.69830989837646 15.7423267364502 10.5 15.7423267364502 C 10.30169010162354 15.7423267364502 10.10338020324707 15.80119228363037 9.932550430297852 15.91892242431641 L 6.341449737548828 18.39372253417969 C 6.159879684448242 18.51885223388672 5.965058326721191 18.57435035705566 5.776633262634277 18.57435035705566 C 5.159220695495605 18.57435035705566 4.609869003295898 17.97881698608398 4.815250396728516 17.28607177734375 L 6.057270050048828 13.09675216674805 C 6.174969673156738 12.69975185394287 6.035820007324219 12.27128219604492 5.707320213317871 12.01919269561768 L 2.242149353027344 9.35997200012207 C 1.494390487670898 8.786131858825684 1.883100509643555 7.59111213684082 2.825359344482422 7.566982269287109 L 7.186739921569824 7.45531177520752 C 7.60120964050293 7.4447021484375 7.966150283813477 7.179431915283203 8.104140281677246 6.7884521484375 L 9.557009696960449 2.671882629394531 C 9.713990211486816 2.227092742919922 10.10699462890625 2.004697799682617 10.5 2.004697799682617 Z" stroke="none" fill="#f89706"/>
  </g>
</svg>
